<?xml version="1.0" encoding="UTF-8" standalone="no"?>
<!DOCTYPE svg PUBLIC "-//W3C//DTD SVG 1.1//EN"
 "http://www.w3.org/Graphics/SVG/1.1/DTD/svg11.dtd">
<!-- Generated by graphviz version 9.0.0 (20231125.0833)
 -->
<!-- Title: Example Pages: 1 -->
<svg width="206pt" height="332pt"
 viewBox="0.00 0.00 205.88 332.00" xmlns="http://www.w3.org/2000/svg" xmlns:xlink="http://www.w3.org/1999/xlink">
<g id="graph0" class="graph" transform="scale(1 1) rotate(0) translate(4 328)">
<title>Example</title>
<polygon fill="none" stroke="none" points="-4,4 -4,-328 201.88,-328 201.88,4 -4,4"/>
<!-- AIRPLANE -->
<g id="node1" class="node">
<title>AIRPLANE</title>
<polygon fill="powderblue" stroke="royalblue" points="81.25,-108 0,-108 0,-72 81.25,-72 81.25,-108"/>
<text text-anchor="middle" x="40.62" y="-86.45" font-family="sans" font-size="14.00">AIRPLANE</text>
</g>
<!-- a380 -->
<g id="node2" class="node">
<title>a380</title>
<polygon fill="powderblue" stroke="royalblue" points="67.62,-36 13.62,-36 13.62,0 67.62,0 67.62,-36"/>
<text text-anchor="middle" x="40.62" y="-14.45" font-family="sans" font-size="14.00">a380</text>
</g>
<!-- AIRPLANE&#45;&gt;a380 -->
<g id="edge1" class="edge">
<title>AIRPLANE&#45;&gt;a380</title>
<path fill="none" stroke="royalblue" d="M40.62,-71.7C40.62,-64.41 40.62,-55.73 40.62,-47.54"/>
<polygon fill="royalblue" stroke="royalblue" points="44.13,-47.62 40.63,-37.62 37.13,-47.62 44.13,-47.62"/>
</g>
<!-- HELICOPTER -->
<g id="node3" class="node">
<title>HELICOPTER</title>
<polygon fill="powderblue" stroke="royalblue" points="197.88,-108 99.38,-108 99.38,-72 197.88,-72 197.88,-108"/>
<text text-anchor="middle" x="148.62" y="-86.45" font-family="sans" font-size="14.00">HELICOPTER</text>
</g>
<!-- r44 -->
<g id="node4" class="node">
<title>r44</title>
<polygon fill="powderblue" stroke="royalblue" points="175.62,-36 121.62,-36 121.62,0 175.62,0 175.62,-36"/>
<text text-anchor="middle" x="148.62" y="-14.45" font-family="sans" font-size="14.00">r44</text>
</g>
<!-- HELICOPTER&#45;&gt;r44 -->
<g id="edge2" class="edge">
<title>HELICOPTER&#45;&gt;r44</title>
<path fill="none" stroke="royalblue" d="M148.62,-71.7C148.62,-64.41 148.62,-55.73 148.62,-47.54"/>
<polygon fill="royalblue" stroke="royalblue" points="152.13,-47.62 148.63,-37.62 145.13,-47.62 152.13,-47.62"/>
</g>
<!-- root -->
<g id="node5" class="node">
<title>root</title>
<polygon fill="powderblue" stroke="royalblue" points="121.62,-324 67.62,-324 67.62,-288 121.62,-288 121.62,-324"/>
<text text-anchor="middle" x="94.62" y="-302.45" font-family="sans" font-size="14.00">root</text>
</g>
<!-- VEHICLE -->
<g id="node6" class="node">
<title>VEHICLE</title>
<polygon fill="powderblue" stroke="royalblue" points="130,-252 59.25,-252 59.25,-216 130,-216 130,-252"/>
<text text-anchor="middle" x="94.62" y="-230.45" font-family="sans" font-size="14.00">VEHICLE</text>
</g>
<!-- root&#45;&gt;VEHICLE -->
<g id="edge3" class="edge">
<title>root&#45;&gt;VEHICLE</title>
<path fill="none" stroke="royalblue" d="M94.62,-287.7C94.62,-280.41 94.62,-271.73 94.62,-263.54"/>
<polygon fill="royalblue" stroke="royalblue" points="98.13,-263.62 94.63,-253.62 91.13,-263.62 98.13,-263.62"/>
</g>
<!-- AIR_VEHICLE -->
<g id="node7" class="node">
<title>AIR_VEHICLE</title>
<polygon fill="powderblue" stroke="royalblue" points="144.25,-180 45,-180 45,-144 144.25,-144 144.25,-180"/>
<text text-anchor="middle" x="94.62" y="-158.45" font-family="sans" font-size="14.00">AIR_VEHICLE</text>
</g>
<!-- VEHICLE&#45;&gt;AIR_VEHICLE -->
<g id="edge4" class="edge">
<title>VEHICLE&#45;&gt;AIR_VEHICLE</title>
<path fill="none" stroke="royalblue" d="M94.62,-215.7C94.62,-208.41 94.62,-199.73 94.62,-191.54"/>
<polygon fill="royalblue" stroke="royalblue" points="98.13,-191.62 94.63,-181.62 91.13,-191.62 98.13,-191.62"/>
</g>
<!-- AIR_VEHICLE&#45;&gt;AIRPLANE -->
<g id="edge5" class="edge">
<title>AIR_VEHICLE&#45;&gt;AIRPLANE</title>
<path fill="none" stroke="royalblue" d="M81.28,-143.7C75.06,-135.64 67.54,-125.89 60.67,-116.98"/>
<polygon fill="royalblue" stroke="royalblue" points="63.62,-115.08 54.74,-109.3 58.08,-119.36 63.62,-115.08"/>
</g>
<!-- AIR_VEHICLE&#45;&gt;HELICOPTER -->
<g id="edge6" class="edge">
<title>AIR_VEHICLE&#45;&gt;HELICOPTER</title>
<path fill="none" stroke="royalblue" d="M107.97,-143.7C114.19,-135.64 121.71,-125.89 128.58,-116.98"/>
<polygon fill="royalblue" stroke="royalblue" points="131.17,-119.36 134.51,-109.3 125.63,-115.08 131.17,-119.36"/>
</g>
</g>
</svg>
