<?xml version="1.0" encoding="UTF-8" standalone="no"?>
<!DOCTYPE svg PUBLIC "-//W3C//DTD SVG 1.1//EN"
 "http://www.w3.org/Graphics/SVG/1.1/DTD/svg11.dtd">
<!-- Generated by graphviz version 9.0.0 (20231125.0833)
 -->
<!-- Title: Example Pages: 1 -->
<svg width="276pt" height="204pt"
 viewBox="0.00 0.00 276.00 204.17" xmlns="http://www.w3.org/2000/svg" xmlns:xlink="http://www.w3.org/1999/xlink">
<g id="graph0" class="graph" transform="scale(1 1) rotate(0) translate(4 200.17)">
<title>Example</title>
<polygon fill="none" stroke="none" points="-4,4 -4,-200.17 272,-200.17 272,4 -4,4"/>
<g id="clust1" class="cluster">
<title>cluster_1</title>
<polygon fill="none" stroke="green" stroke-dasharray="5,2" points="8,-66.89 8,-149.28 94,-149.28 94,-66.89 8,-66.89"/>
<text text-anchor="middle" x="51" y="-131.98" font-family="sans" font-size="14.00" fill="green">:good</text>
</g>
<g id="clust2" class="cluster">
<title>cluster_2</title>
<polygon fill="none" stroke="red" stroke-dasharray="5,2" points="102,-66.89 102,-149.28 174,-149.28 174,-66.89 102,-66.89"/>
<text text-anchor="middle" x="138" y="-131.98" font-family="sans" font-size="14.00" fill="red">:bad</text>
</g>
<g id="clust3" class="cluster">
<title>cluster_3</title>
<polygon fill="none" stroke="purple" stroke-dasharray="5,2" points="182,-66.89 182,-149.28 260,-149.28 260,-66.89 182,-66.89"/>
<text text-anchor="middle" x="221" y="-131.98" font-family="sans" font-size="14.00" fill="purple">:ugly</text>
</g>
<!-- good -->
<g id="node1" class="node">
<title>good</title>
<ellipse fill="none" stroke="black" cx="51" cy="-94.34" rx="34.65" ry="19.45"/>
<text text-anchor="middle" x="51" y="-90.79" font-family="sans" font-size="14.00">good</text>
</g>
<!-- fin -->
<g id="node5" class="node">
<title>fin</title>
<ellipse fill="none" stroke="black" cx="138" cy="-19.45" rx="27" ry="19.45"/>
<text text-anchor="middle" x="138" y="-15.9" font-family="sans" font-size="14.00">fin</text>
</g>
<!-- good&#45;&gt;fin -->
<g id="edge4" class="edge">
<title>good&#45;&gt;fin</title>
<path fill="none" stroke="black" d="M69.88,-77.52C82.34,-67.08 98.82,-53.27 112.45,-41.85"/>
<polygon fill="none" stroke="black" points="114.35,-44.83 119.77,-35.72 109.86,-39.46 114.35,-44.83"/>
</g>
<!-- bad -->
<g id="node2" class="node">
<title>bad</title>
<ellipse fill="none" stroke="black" cx="138" cy="-94.34" rx="28.28" ry="19.45"/>
<text text-anchor="middle" x="138" y="-90.79" font-family="sans" font-size="14.00">bad</text>
</g>
<!-- bad&#45;&gt;fin -->
<g id="edge5" class="edge">
<title>bad&#45;&gt;fin</title>
<path fill="none" stroke="black" d="M138,-74.57C138,-67.25 138,-58.69 138,-50.56"/>
<polygon fill="none" stroke="black" points="141.5,-50.67 138,-40.67 134.5,-50.67 141.5,-50.67"/>
</g>
<!-- ugly -->
<g id="node3" class="node">
<title>ugly</title>
<ellipse fill="none" stroke="black" cx="221" cy="-94.34" rx="31.47" ry="19.45"/>
<text text-anchor="middle" x="221" y="-90.79" font-family="sans" font-size="14.00">ugly</text>
</g>
<!-- ugly&#45;&gt;fin -->
<g id="edge6" class="edge">
<title>ugly&#45;&gt;fin</title>
<path fill="none" stroke="black" d="M203.4,-77.88C191.72,-67.62 176.22,-54.01 163.23,-42.61"/>
<polygon fill="none" stroke="black" points="165.69,-40.1 155.86,-36.13 161.07,-45.36 165.69,-40.1"/>
</g>
<!-- showdown -->
<g id="node4" class="node">
<title>showdown</title>
<ellipse fill="none" stroke="black" cx="138" cy="-176.73" rx="62.23" ry="19.45"/>
<text text-anchor="middle" x="138" y="-173.18" font-family="sans" font-size="14.00">showdown</text>
</g>
<!-- showdown&#45;&gt;good -->
<g id="edge1" class="edge">
<title>showdown&#45;&gt;good</title>
<path fill="none" stroke="black" d="M110.59,-159.04C106.23,-155.99 101.88,-152.68 98,-149.28 88.47,-140.94 79.07,-130.68 71.21,-121.35"/>
<polygon fill="black" stroke="black" points="73.92,-119.14 64.88,-113.62 68.51,-123.57 73.92,-119.14"/>
</g>
<!-- showdown&#45;&gt;bad -->
<g id="edge2" class="edge">
<title>showdown&#45;&gt;bad</title>
<path fill="none" stroke="black" d="M138,-157.08C138,-147.71 138,-136.13 138,-125.53"/>
<polygon fill="black" stroke="black" points="141.5,-125.67 138,-115.67 134.5,-125.67 141.5,-125.67"/>
</g>
<!-- showdown&#45;&gt;ugly -->
<g id="edge3" class="edge">
<title>showdown&#45;&gt;ugly</title>
<path fill="none" stroke="black" d="M165.96,-158.89C170.16,-155.9 174.31,-152.65 178,-149.28 186.85,-141.18 195.36,-131.16 202.44,-121.96"/>
<polygon fill="black" stroke="black" points="205.2,-124.11 208.35,-114 199.58,-119.94 205.2,-124.11"/>
</g>
</g>
</svg>
