<?xml version="1.0" encoding="UTF-8" standalone="no"?>
<!DOCTYPE svg PUBLIC "-//W3C//DTD SVG 1.1//EN"
 "http://www.w3.org/Graphics/SVG/1.1/DTD/svg11.dtd">
<!-- Generated by graphviz version 9.0.0 (20231125.0833)
 -->
<!-- Title: graph_tutorial Pages: 1 -->
<svg width="134pt" height="272pt"
 viewBox="0.00 0.00 134.00 271.56" xmlns="http://www.w3.org/2000/svg" xmlns:xlink="http://www.w3.org/1999/xlink">
<g id="graph0" class="graph" transform="scale(1 1) rotate(0) translate(4 267.56)">
<title>graph_tutorial</title>
<polygon fill="none" stroke="none" points="-4,4 -4,-267.56 130,-267.56 130,4 -4,4"/>
<!-- a -->
<g id="node1" class="node">
<title>a</title>
<ellipse fill="none" stroke="black" cx="27" cy="-244.12" rx="27" ry="19.45"/>
<text text-anchor="middle" x="27" y="-240.57" font-family="sans" font-size="14.00">a</text>
</g>
<!-- b -->
<g id="node2" class="node">
<title>b</title>
<ellipse fill="none" stroke="black" cx="63" cy="-169.23" rx="27" ry="19.45"/>
<text text-anchor="middle" x="63" y="-165.68" font-family="sans" font-size="14.00">b</text>
</g>
<!-- a&#45;&gt;b -->
<g id="edge1" class="edge">
<title>a&#45;&gt;b</title>
<path fill="none" stroke="black" d="M35.71,-225.47C39.75,-217.3 44.65,-207.38 49.17,-198.22"/>
<polygon fill="black" stroke="black" points="52.28,-199.84 53.57,-189.32 46,-196.74 52.28,-199.84"/>
</g>
<!-- d -->
<g id="node3" class="node">
<title>d</title>
<ellipse fill="none" stroke="black" cx="27" cy="-94.34" rx="27" ry="19.45"/>
<text text-anchor="middle" x="27" y="-90.79" font-family="sans" font-size="14.00">d</text>
</g>
<!-- b&#45;&gt;d -->
<g id="edge2" class="edge">
<title>b&#45;&gt;d</title>
<path fill="none" stroke="black" d="M54.29,-150.58C50.25,-142.41 45.35,-132.49 40.83,-123.33"/>
<polygon fill="black" stroke="black" points="44,-121.84 36.43,-114.43 37.72,-124.94 44,-121.84"/>
</g>
<!-- f -->
<g id="node6" class="node">
<title>f</title>
<ellipse fill="none" stroke="black" cx="99" cy="-94.34" rx="27" ry="19.45"/>
<text text-anchor="middle" x="99" y="-90.79" font-family="sans" font-size="14.00">f</text>
</g>
<!-- b&#45;&gt;f -->
<g id="edge5" class="edge">
<title>b&#45;&gt;f</title>
<path fill="none" stroke="black" d="M71.71,-150.58C75.75,-142.41 80.65,-132.49 85.17,-123.33"/>
<polygon fill="black" stroke="black" points="88.28,-124.94 89.57,-114.43 82,-121.84 88.28,-124.94"/>
</g>
<!-- e -->
<g id="node4" class="node">
<title>e</title>
<ellipse fill="none" stroke="black" cx="27" cy="-19.45" rx="27" ry="19.45"/>
<text text-anchor="middle" x="27" y="-15.9" font-family="sans" font-size="14.00">e</text>
</g>
<!-- d&#45;&gt;e -->
<g id="edge3" class="edge">
<title>d&#45;&gt;e</title>
<path fill="none" stroke="black" d="M27,-74.57C27,-67.25 27,-58.69 27,-50.56"/>
<polygon fill="black" stroke="black" points="30.5,-50.67 27,-40.67 23.5,-50.67 30.5,-50.67"/>
</g>
<!-- c -->
<g id="node5" class="node">
<title>c</title>
<ellipse fill="none" stroke="black" cx="99" cy="-244.12" rx="27" ry="19.45"/>
<text text-anchor="middle" x="99" y="-240.57" font-family="sans" font-size="14.00">c</text>
</g>
<!-- c&#45;&gt;b -->
<g id="edge4" class="edge">
<title>c&#45;&gt;b</title>
<path fill="none" stroke="black" d="M90.29,-225.47C86.25,-217.3 81.35,-207.38 76.83,-198.22"/>
<polygon fill="black" stroke="black" points="80,-196.74 72.43,-189.32 73.72,-199.84 80,-196.74"/>
</g>
</g>
</svg>
