<?xml version="1.0" encoding="UTF-8" standalone="no"?>
<!DOCTYPE svg PUBLIC "-//W3C//DTD SVG 1.1//EN"
 "http://www.w3.org/Graphics/SVG/1.1/DTD/svg11.dtd">
<!-- Generated by graphviz version 9.0.0 (20231125.0833)
 -->
<!-- Title: Example Pages: 1 -->
<svg width="504pt" height="238pt"
 viewBox="0.00 0.00 504.00 237.56" xmlns="http://www.w3.org/2000/svg" xmlns:xlink="http://www.w3.org/1999/xlink">
<g id="graph0" class="graph" transform="scale(0.913706 0.913706) rotate(0) translate(4 256)">
<title>Example</title>
<polygon fill="none" stroke="none" points="-4,4 -4,-256 547.6,-256 547.6,4 -4,4"/>
<!-- VEHICLE -->
<g id="node1" class="node">
<title>VEHICLE</title>
<polygon fill="powderblue" stroke="royalblue" points="210,-252 139.25,-252 139.25,-216 210,-216 210,-252"/>
<text text-anchor="middle" x="174.62" y="-230.45" font-family="sans" font-size="14.00">VEHICLE</text>
</g>
<!-- AIR_VEHICLE -->
<g id="node2" class="node">
<title>AIR_VEHICLE</title>
<polygon fill="powderblue" stroke="royalblue" points="99.25,-180 0,-180 0,-144 99.25,-144 99.25,-180"/>
<text text-anchor="middle" x="49.62" y="-158.45" font-family="sans" font-size="14.00">AIR_VEHICLE</text>
</g>
<!-- VEHICLE&#45;&gt;AIR_VEHICLE -->
<g id="edge1" class="edge">
<title>VEHICLE&#45;&gt;AIR_VEHICLE</title>
<path fill="none" stroke="black" d="M143.4,-215.52C127.33,-206.51 107.52,-195.42 90.27,-185.76"/>
<polygon fill="black" stroke="black" points="92.2,-182.83 81.77,-181 88.78,-188.94 92.2,-182.83"/>
</g>
<!-- LAND_VEHICLE -->
<g id="node3" class="node">
<title>LAND_VEHICLE</title>
<polygon fill="powderblue" stroke="royalblue" points="231.75,-180 117.5,-180 117.5,-144 231.75,-144 231.75,-180"/>
<text text-anchor="middle" x="174.62" y="-158.45" font-family="sans" font-size="14.00">LAND_VEHICLE</text>
</g>
<!-- VEHICLE&#45;&gt;LAND_VEHICLE -->
<g id="edge3" class="edge">
<title>VEHICLE&#45;&gt;LAND_VEHICLE</title>
<path fill="none" stroke="black" d="M174.62,-215.7C174.62,-208.41 174.62,-199.73 174.62,-191.54"/>
<polygon fill="black" stroke="black" points="178.13,-191.62 174.63,-181.62 171.13,-191.62 178.13,-191.62"/>
</g>
<!-- WATER_VEHICLE -->
<g id="node4" class="node">
<title>WATER_VEHICLE</title>
<polygon fill="powderblue" stroke="royalblue" points="371.5,-180 249.75,-180 249.75,-144 371.5,-144 371.5,-180"/>
<text text-anchor="middle" x="310.62" y="-158.45" font-family="sans" font-size="14.00">WATER_VEHICLE</text>
</g>
<!-- VEHICLE&#45;&gt;WATER_VEHICLE -->
<g id="edge5" class="edge">
<title>VEHICLE&#45;&gt;WATER_VEHICLE</title>
<path fill="none" stroke="black" d="M208.59,-215.52C226.25,-206.43 248.03,-195.22 266.93,-185.49"/>
<polygon fill="black" stroke="black" points="268.45,-188.64 275.74,-180.95 265.25,-182.42 268.45,-188.64"/>
</g>
<!-- HOVERCRAFT -->
<g id="node5" class="node">
<title>HOVERCRAFT</title>
<polygon fill="powderblue" stroke="royalblue" points="248.5,-108 144.75,-108 144.75,-72 248.5,-72 248.5,-108"/>
<text text-anchor="middle" x="196.62" y="-86.45" font-family="sans" font-size="14.00">HOVERCRAFT</text>
</g>
<!-- AIR_VEHICLE&#45;&gt;HOVERCRAFT -->
<g id="edge2" class="edge">
<title>AIR_VEHICLE&#45;&gt;HOVERCRAFT</title>
<path fill="none" stroke="black" d="M86.34,-143.52C105.53,-134.38 129.23,-123.09 149.73,-113.33"/>
<polygon fill="black" stroke="black" points="151.23,-116.49 158.76,-109.03 148.22,-110.17 151.23,-116.49"/>
</g>
<!-- LAND_VEHICLE&#45;&gt;HOVERCRAFT -->
<g id="edge4" class="edge">
<title>LAND_VEHICLE&#45;&gt;HOVERCRAFT</title>
<path fill="none" stroke="black" d="M180.06,-143.7C182.41,-136.24 185.21,-127.32 187.84,-118.97"/>
<polygon fill="black" stroke="black" points="191.14,-120.14 190.8,-109.55 184.46,-118.04 191.14,-120.14"/>
</g>
<!-- WATER_VEHICLE&#45;&gt;HOVERCRAFT -->
<g id="edge6" class="edge">
<title>WATER_VEHICLE&#45;&gt;HOVERCRAFT</title>
<path fill="none" stroke="black" d="M282.15,-143.52C267.62,-134.6 249.77,-123.63 234.13,-114.03"/>
<polygon fill="black" stroke="black" points="236.38,-111.3 226.02,-109.05 232.72,-117.27 236.38,-111.3"/>
</g>
<!-- bht130 -->
<g id="node6" class="node">
<title>bht130</title>
<polygon fill="powderblue" stroke="royalblue" points="329.25,-36 266,-36 266,0 329.25,0 329.25,-36"/>
<text text-anchor="middle" x="297.62" y="-14.45" font-family="sans" font-size="14.00">bht130</text>
</g>
<!-- HOVERCRAFT&#45;&gt;bht130 -->
<g id="edge7" class="edge">
<title>HOVERCRAFT&#45;&gt;bht130</title>
<path fill="none" stroke="black" d="M221.85,-71.52C234.48,-62.76 249.95,-52.04 263.61,-42.58"/>
<polygon fill="black" stroke="black" points="265.25,-45.7 271.48,-37.12 261.26,-39.94 265.25,-45.7"/>
</g>
<!-- ENGINE -->
<g id="node7" class="node">
<title>ENGINE</title>
<polygon fill="powderblue" stroke="royalblue" points="456.12,-180 389.12,-180 389.12,-144 456.12,-144 456.12,-180"/>
<text text-anchor="middle" x="422.62" y="-158.45" font-family="sans" font-size="14.00">ENGINE</text>
</g>
<!-- INTERNAL_COMBUSTION_ENGINE -->
<g id="node8" class="node">
<title>INTERNAL_COMBUSTION_ENGINE</title>
<polygon fill="powderblue" stroke="royalblue" points="543.6,-108 277.65,-108 277.65,-72 543.6,-72 543.6,-108"/>
<text text-anchor="middle" x="410.62" y="-86.45" font-family="sans" font-size="14.00">INTERNAL_COMBUSTION_ENGINE</text>
</g>
<!-- ENGINE&#45;&gt;INTERNAL_COMBUSTION_ENGINE -->
<g id="edge8" class="edge">
<title>ENGINE&#45;&gt;INTERNAL_COMBUSTION_ENGINE</title>
<path fill="none" stroke="black" d="M419.66,-143.7C418.39,-136.32 416.89,-127.52 415.47,-119.25"/>
<polygon fill="black" stroke="black" points="418.95,-118.86 413.81,-109.6 412.05,-120.04 418.95,-118.86"/>
</g>
<!-- INTERNAL_COMBUSTION_ENGINE&#45;&gt;bht130 -->
<g id="edge9" class="edge">
<title>INTERNAL_COMBUSTION_ENGINE&#45;&gt;bht130</title>
<path fill="none" stroke="black" d="M382.4,-71.52C368.14,-62.68 350.63,-51.84 335.24,-42.3"/>
<polygon fill="black" stroke="black" points="337.12,-39.35 326.78,-37.06 333.43,-45.3 337.12,-39.35"/>
</g>
</g>
</svg>
