<?xml version="1.0" encoding="UTF-8" standalone="no"?>
<!DOCTYPE svg PUBLIC "-//W3C//DTD SVG 1.1//EN"
 "http://www.w3.org/Graphics/SVG/1.1/DTD/svg11.dtd">
<!-- Generated by graphviz version 9.0.0 (20231125.0833)
 -->
<!-- Pages: 1 -->
<svg width="476pt" height="2493pt"
 viewBox="0.00 0.00 475.75 2493.00" xmlns="http://www.w3.org/2000/svg" xmlns:xlink="http://www.w3.org/1999/xlink">
<g id="graph0" class="graph" transform="scale(1 1) rotate(0) translate(4 2489)">
<polygon fill="none" stroke="none" points="-4,4 -4,-2489 471.75,-2489 471.75,4 -4,4"/>
<!-- absolute_outputs -->
<g id="node1" class="node">
<title>absolute_outputs</title>
<polygon fill="none" stroke="black" points="34.62,-81.25 34.62,-110 178.12,-110 178.12,-81.25 34.62,-81.25"/>
<text text-anchor="start" x="39.62" y="-90.8" font-family="Helvetica,sans-Serif" font-weight="bold" font-size="16.00">absolute_outputs</text>
<polygon fill="none" stroke="black" points="34.62,-55.5 34.62,-81.25 178.12,-81.25 178.12,-55.5 34.62,-55.5"/>
<text text-anchor="start" x="39.62" y="-62.95" font-family="Helvetica,sans-Serif" font-size="14.00">cycle</text>
<polygon fill="none" stroke="black" points="34.62,-29.75 34.62,-55.5 178.12,-55.5 178.12,-29.75 34.62,-29.75"/>
<text text-anchor="start" x="39.62" y="-37.2" font-family="Helvetica,sans-Serif" font-size="14.00">name</text>
<polygon fill="none" stroke="black" points="34.62,-4 34.62,-29.75 178.12,-29.75 178.12,-4 34.62,-4"/>
<text text-anchor="start" x="39.62" y="-11.45" font-family="Helvetica,sans-Serif" font-size="14.00">output</text>
</g>
<!-- broadcast_events -->
<g id="node2" class="node">
<title>broadcast_events</title>
<polygon fill="none" stroke="black" points="33.12,-290.88 33.12,-319.62 179.62,-319.62 179.62,-290.88 33.12,-290.88"/>
<text text-anchor="start" x="38.12" y="-300.43" font-family="Helvetica,sans-Serif" font-weight="bold" font-size="16.00">broadcast_events</text>
<polygon fill="none" stroke="black" points="33.12,-265.12 33.12,-290.88 179.62,-290.88 179.62,-265.12 33.12,-265.12"/>
<text text-anchor="start" x="38.12" y="-272.57" font-family="Helvetica,sans-Serif" font-size="14.00">time</text>
<polygon fill="none" stroke="black" points="33.12,-239.38 33.12,-265.12 179.62,-265.12 179.62,-239.38 33.12,-239.38"/>
<text text-anchor="start" x="38.12" y="-246.82" font-family="Helvetica,sans-Serif" font-size="14.00">change</text>
<polygon fill="none" stroke="black" points="33.12,-213.62 33.12,-239.38 179.62,-239.38 179.62,-213.62 33.12,-213.62"/>
<text text-anchor="start" x="38.12" y="-221.07" font-family="Helvetica,sans-Serif" font-size="14.00">point</text>
<polygon fill="none" stroke="black" points="33.12,-187.88 33.12,-213.62 179.62,-213.62 179.62,-187.88 33.12,-187.88"/>
<text text-anchor="start" x="38.12" y="-195.32" font-family="Helvetica,sans-Serif" font-size="14.00">namespace</text>
<polygon fill="none" stroke="black" points="33.12,-162.12 33.12,-187.88 179.62,-187.88 179.62,-162.12 33.12,-162.12"/>
<text text-anchor="start" x="38.12" y="-169.57" font-family="Helvetica,sans-Serif" font-size="14.00">key</text>
<polygon fill="none" stroke="black" points="33.12,-136.38 33.12,-162.12 179.62,-162.12 179.62,-136.38 33.12,-136.38"/>
<text text-anchor="start" x="38.12" y="-143.82" font-family="Helvetica,sans-Serif" font-size="14.00">value</text>
</g>
<!-- broadcast_states -->
<g id="node3" class="node">
<title>broadcast_states</title>
<polygon fill="none" stroke="black" points="35.38,-449.12 35.38,-477.88 177.38,-477.88 177.38,-449.12 35.38,-449.12"/>
<text text-anchor="start" x="40.38" y="-458.68" font-family="Helvetica,sans-Serif" font-weight="bold" font-size="16.00">broadcast_states</text>
<polygon fill="none" stroke="black" points="35.38,-423.38 35.38,-449.12 177.38,-449.12 177.38,-423.38 35.38,-423.38"/>
<text text-anchor="start" x="40.38" y="-431.82" font-family="Helvetica,sans-Serif" text-decoration="underline" font-size="14.00">point</text>
<polygon fill="none" stroke="black" points="35.38,-397.62 35.38,-423.38 177.38,-423.38 177.38,-397.62 35.38,-397.62"/>
<text text-anchor="start" x="40.38" y="-406.07" font-family="Helvetica,sans-Serif" text-decoration="underline" font-size="14.00">namespace</text>
<polygon fill="none" stroke="black" points="35.38,-371.88 35.38,-397.62 177.38,-397.62 177.38,-371.88 35.38,-371.88"/>
<text text-anchor="start" x="40.38" y="-380.32" font-family="Helvetica,sans-Serif" text-decoration="underline" font-size="14.00">key</text>
<polygon fill="none" stroke="black" points="35.38,-346.12 35.38,-371.88 177.38,-371.88 177.38,-346.12 35.38,-346.12"/>
<text text-anchor="start" x="40.38" y="-353.57" font-family="Helvetica,sans-Serif" font-size="14.00">value</text>
</g>
<!-- inheritance -->
<g id="node4" class="node">
<title>inheritance</title>
<polygon fill="none" stroke="black" points="58.62,-555.38 58.62,-584.12 154.12,-584.12 154.12,-555.38 58.62,-555.38"/>
<text text-anchor="start" x="63.62" y="-564.92" font-family="Helvetica,sans-Serif" font-weight="bold" font-size="16.00">inheritance</text>
<polygon fill="none" stroke="black" points="58.62,-529.62 58.62,-555.38 154.12,-555.38 154.12,-529.62 58.62,-529.62"/>
<text text-anchor="start" x="63.62" y="-538.08" font-family="Helvetica,sans-Serif" text-decoration="underline" font-size="14.00">namespace</text>
<polygon fill="none" stroke="black" points="58.62,-503.88 58.62,-529.62 154.12,-529.62 154.12,-503.88 58.62,-503.88"/>
<text text-anchor="start" x="63.62" y="-511.32" font-family="Helvetica,sans-Serif" font-size="14.00">inheritance</text>
</g>
<!-- task_action_timers -->
<g id="node5" class="node">
<title>task_action_timers</title>
<polygon fill="none" stroke="black" points="299,-1118.62 299,-1147.38 454.5,-1147.38 454.5,-1118.62 299,-1118.62"/>
<text text-anchor="start" x="304" y="-1128.17" font-family="Helvetica,sans-Serif" font-weight="bold" font-size="16.00">task_action_timers</text>
<polygon fill="none" stroke="black" points="299,-1092.88 299,-1118.62 454.5,-1118.62 454.5,-1092.88 299,-1092.88"/>
<text text-anchor="start" x="304" y="-1101.33" font-family="Helvetica,sans-Serif" text-decoration="underline" font-size="14.00">cycle</text>
<polygon fill="none" stroke="black" points="299,-1067.12 299,-1092.88 454.5,-1092.88 454.5,-1067.12 299,-1067.12"/>
<text text-anchor="start" x="304" y="-1075.58" font-family="Helvetica,sans-Serif" text-decoration="underline" font-size="14.00">name</text>
<polygon fill="none" stroke="black" points="299,-1041.38 299,-1067.12 454.5,-1067.12 454.5,-1041.38 299,-1041.38"/>
<text text-anchor="start" x="304" y="-1049.83" font-family="Helvetica,sans-Serif" text-decoration="underline" font-size="14.00">ctx_key</text>
<polygon fill="none" stroke="black" points="299,-1015.62 299,-1041.38 454.5,-1041.38 454.5,-1015.62 299,-1015.62"/>
<text text-anchor="start" x="304" y="-1023.08" font-family="Helvetica,sans-Serif" font-size="14.00">ctx</text>
<polygon fill="none" stroke="black" points="299,-989.88 299,-1015.62 454.5,-1015.62 454.5,-989.88 299,-989.88"/>
<text text-anchor="start" x="304" y="-997.33" font-family="Helvetica,sans-Serif" font-size="14.00">delays</text>
<polygon fill="none" stroke="black" points="299,-964.12 299,-989.88 454.5,-989.88 454.5,-964.12 299,-964.12"/>
<text text-anchor="start" x="304" y="-971.58" font-family="Helvetica,sans-Serif" font-size="14.00">num</text>
<polygon fill="none" stroke="black" points="299,-938.38 299,-964.12 454.5,-964.12 454.5,-938.38 299,-938.38"/>
<text text-anchor="start" x="304" y="-945.83" font-family="Helvetica,sans-Serif" font-size="14.00">delay</text>
<polygon fill="none" stroke="black" points="299,-912.62 299,-938.38 454.5,-938.38 454.5,-912.62 299,-912.62"/>
<text text-anchor="start" x="304" y="-920.08" font-family="Helvetica,sans-Serif" font-size="14.00">timeout</text>
</g>
<!-- task_events -->
<g id="node6" class="node">
<title>task_events</title>
<polygon fill="none" stroke="black" points="325.62,-1794.88 325.62,-1823.62 427.88,-1823.62 427.88,-1794.88 325.62,-1794.88"/>
<text text-anchor="start" x="330.62" y="-1804.42" font-family="Helvetica,sans-Serif" font-weight="bold" font-size="16.00">task_events</text>
<polygon fill="none" stroke="black" points="325.62,-1769.12 325.62,-1794.88 427.88,-1794.88 427.88,-1769.12 325.62,-1769.12"/>
<text text-anchor="start" x="330.62" y="-1776.58" font-family="Helvetica,sans-Serif" font-size="14.00">name</text>
<polygon fill="none" stroke="black" points="325.62,-1743.38 325.62,-1769.12 427.88,-1769.12 427.88,-1743.38 325.62,-1743.38"/>
<text text-anchor="start" x="330.62" y="-1750.83" font-family="Helvetica,sans-Serif" font-size="14.00">cycle</text>
<polygon fill="none" stroke="black" points="325.62,-1717.62 325.62,-1743.38 427.88,-1743.38 427.88,-1717.62 325.62,-1717.62"/>
<text text-anchor="start" x="330.62" y="-1725.08" font-family="Helvetica,sans-Serif" font-size="14.00">time</text>
<polygon fill="none" stroke="black" points="325.62,-1691.88 325.62,-1717.62 427.88,-1717.62 427.88,-1691.88 325.62,-1691.88"/>
<text text-anchor="start" x="330.62" y="-1699.33" font-family="Helvetica,sans-Serif" font-size="14.00">submit_num</text>
<polygon fill="none" stroke="black" points="325.62,-1666.12 325.62,-1691.88 427.88,-1691.88 427.88,-1666.12 325.62,-1666.12"/>
<text text-anchor="start" x="330.62" y="-1673.58" font-family="Helvetica,sans-Serif" font-size="14.00">event</text>
<polygon fill="none" stroke="black" points="325.62,-1640.38 325.62,-1666.12 427.88,-1666.12 427.88,-1640.38 325.62,-1640.38"/>
<text text-anchor="start" x="330.62" y="-1647.83" font-family="Helvetica,sans-Serif" font-size="14.00">message</text>
</g>
<!-- task_jobs -->
<g id="node7" class="node">
<title>task_jobs</title>
<polygon fill="none" stroke="black" points="316.62,-1585.62 316.62,-1614.38 436.88,-1614.38 436.88,-1585.62 316.62,-1585.62"/>
<text text-anchor="start" x="339.62" y="-1595.17" font-family="Helvetica,sans-Serif" font-weight="bold" font-size="16.00">task_jobs</text>
<polygon fill="none" stroke="black" points="316.62,-1559.88 316.62,-1585.62 436.88,-1585.62 436.88,-1559.88 316.62,-1559.88"/>
<text text-anchor="start" x="321.62" y="-1568.33" font-family="Helvetica,sans-Serif" text-decoration="underline" font-size="14.00">cycle</text>
<polygon fill="none" stroke="black" points="316.62,-1534.12 316.62,-1559.88 436.88,-1559.88 436.88,-1534.12 316.62,-1534.12"/>
<text text-anchor="start" x="321.62" y="-1542.58" font-family="Helvetica,sans-Serif" text-decoration="underline" font-size="14.00">name</text>
<polygon fill="none" stroke="black" points="316.62,-1508.38 316.62,-1534.12 436.88,-1534.12 436.88,-1508.38 316.62,-1508.38"/>
<text text-anchor="start" x="321.62" y="-1516.83" font-family="Helvetica,sans-Serif" text-decoration="underline" font-size="14.00">submit_num</text>
<polygon fill="none" stroke="black" points="316.62,-1482.62 316.62,-1508.38 436.88,-1508.38 436.88,-1482.62 316.62,-1482.62"/>
<text text-anchor="start" x="321.62" y="-1490.08" font-family="Helvetica,sans-Serif" font-size="14.00">flow_nums</text>
<polygon fill="none" stroke="black" points="316.62,-1456.88 316.62,-1482.62 436.88,-1482.62 436.88,-1456.88 316.62,-1456.88"/>
<text text-anchor="start" x="321.62" y="-1464.33" font-family="Helvetica,sans-Serif" font-size="14.00">is_manual_submit</text>
<polygon fill="none" stroke="black" points="316.62,-1431.12 316.62,-1456.88 436.88,-1456.88 436.88,-1431.12 316.62,-1431.12"/>
<text text-anchor="start" x="321.62" y="-1438.58" font-family="Helvetica,sans-Serif" font-size="14.00">try_num</text>
<polygon fill="none" stroke="black" points="316.62,-1405.38 316.62,-1431.12 436.88,-1431.12 436.88,-1405.38 316.62,-1405.38"/>
<text text-anchor="start" x="321.62" y="-1412.83" font-family="Helvetica,sans-Serif" font-size="14.00">time_submit</text>
<polygon fill="none" stroke="black" points="316.62,-1379.62 316.62,-1405.38 436.88,-1405.38 436.88,-1379.62 316.62,-1379.62"/>
<text text-anchor="start" x="321.62" y="-1387.08" font-family="Helvetica,sans-Serif" font-size="14.00">time_submit_exit</text>
<polygon fill="none" stroke="black" points="316.62,-1353.88 316.62,-1379.62 436.88,-1379.62 436.88,-1353.88 316.62,-1353.88"/>
<text text-anchor="start" x="321.62" y="-1361.33" font-family="Helvetica,sans-Serif" font-size="14.00">submit_status</text>
<polygon fill="none" stroke="black" points="316.62,-1328.12 316.62,-1353.88 436.88,-1353.88 436.88,-1328.12 316.62,-1328.12"/>
<text text-anchor="start" x="321.62" y="-1335.58" font-family="Helvetica,sans-Serif" font-size="14.00">time_run</text>
<polygon fill="none" stroke="black" points="316.62,-1302.38 316.62,-1328.12 436.88,-1328.12 436.88,-1302.38 316.62,-1302.38"/>
<text text-anchor="start" x="321.62" y="-1309.83" font-family="Helvetica,sans-Serif" font-size="14.00">time_run_exit</text>
<polygon fill="none" stroke="black" points="316.62,-1276.62 316.62,-1302.38 436.88,-1302.38 436.88,-1276.62 316.62,-1276.62"/>
<text text-anchor="start" x="321.62" y="-1284.08" font-family="Helvetica,sans-Serif" font-size="14.00">run_signal</text>
<polygon fill="none" stroke="black" points="316.62,-1250.88 316.62,-1276.62 436.88,-1276.62 436.88,-1250.88 316.62,-1250.88"/>
<text text-anchor="start" x="321.62" y="-1258.33" font-family="Helvetica,sans-Serif" font-size="14.00">run_status</text>
<polygon fill="none" stroke="black" points="316.62,-1225.12 316.62,-1250.88 436.88,-1250.88 436.88,-1225.12 316.62,-1225.12"/>
<text text-anchor="start" x="321.62" y="-1232.58" font-family="Helvetica,sans-Serif" font-size="14.00">platform_name</text>
<polygon fill="none" stroke="black" points="316.62,-1199.38 316.62,-1225.12 436.88,-1225.12 436.88,-1199.38 316.62,-1199.38"/>
<text text-anchor="start" x="321.62" y="-1206.83" font-family="Helvetica,sans-Serif" font-size="14.00">job_runner_name</text>
<polygon fill="none" stroke="black" points="316.62,-1173.62 316.62,-1199.38 436.88,-1199.38 436.88,-1173.62 316.62,-1173.62"/>
<text text-anchor="start" x="321.62" y="-1181.08" font-family="Helvetica,sans-Serif" font-size="14.00">job_id</text>
</g>
<!-- task_late_flags -->
<g id="node8" class="node">
<title>task_late_flags</title>
<polygon fill="none" stroke="black" points="314,-858.25 314,-887 439.5,-887 439.5,-858.25 314,-858.25"/>
<text text-anchor="start" x="319" y="-867.8" font-family="Helvetica,sans-Serif" font-weight="bold" font-size="16.00">task_late_flags</text>
<polygon fill="none" stroke="black" points="314,-832.5 314,-858.25 439.5,-858.25 439.5,-832.5 314,-832.5"/>
<text text-anchor="start" x="319" y="-840.95" font-family="Helvetica,sans-Serif" text-decoration="underline" font-size="14.00">cycle</text>
<polygon fill="none" stroke="black" points="314,-806.75 314,-832.5 439.5,-832.5 439.5,-806.75 314,-806.75"/>
<text text-anchor="start" x="319" y="-815.2" font-family="Helvetica,sans-Serif" text-decoration="underline" font-size="14.00">name</text>
<polygon fill="none" stroke="black" points="314,-781 314,-806.75 439.5,-806.75 439.5,-781 314,-781"/>
<text text-anchor="start" x="319" y="-788.45" font-family="Helvetica,sans-Serif" font-size="14.00">value</text>
</g>
<!-- task_outputs -->
<g id="node9" class="node">
<title>task_outputs</title>
<polygon fill="none" stroke="black" points="321.88,-726.12 321.88,-754.88 431.62,-754.88 431.62,-726.12 321.88,-726.12"/>
<text text-anchor="start" x="326.88" y="-735.67" font-family="Helvetica,sans-Serif" font-weight="bold" font-size="16.00">task_outputs</text>
<polygon fill="none" stroke="black" points="321.88,-700.38 321.88,-726.12 431.62,-726.12 431.62,-700.38 321.88,-700.38"/>
<text text-anchor="start" x="326.88" y="-708.83" font-family="Helvetica,sans-Serif" text-decoration="underline" font-size="14.00">cycle</text>
<polygon fill="none" stroke="black" points="321.88,-674.62 321.88,-700.38 431.62,-700.38 431.62,-674.62 321.88,-674.62"/>
<text text-anchor="start" x="326.88" y="-683.08" font-family="Helvetica,sans-Serif" text-decoration="underline" font-size="14.00">name</text>
<polygon fill="none" stroke="black" points="321.88,-648.88 321.88,-674.62 431.62,-674.62 431.62,-648.88 321.88,-648.88"/>
<text text-anchor="start" x="326.88" y="-657.33" font-family="Helvetica,sans-Serif" text-decoration="underline" font-size="14.00">flow_nums</text>
<polygon fill="none" stroke="black" points="321.88,-623.12 321.88,-648.88 431.62,-648.88 431.62,-623.12 321.88,-623.12"/>
<text text-anchor="start" x="326.88" y="-630.58" font-family="Helvetica,sans-Serif" font-size="14.00">outputs</text>
</g>
<!-- task_pool -->
<g id="node10" class="node">
<title>task_pool</title>
<polygon fill="none" stroke="black" points="63.88,-739 63.88,-767.75 148.88,-767.75 148.88,-739 63.88,-739"/>
<text text-anchor="start" x="68.88" y="-748.55" font-family="Helvetica,sans-Serif" font-weight="bold" font-size="16.00">task_pool</text>
<polygon fill="none" stroke="black" points="63.88,-713.25 63.88,-739 148.88,-739 148.88,-713.25 63.88,-713.25"/>
<text text-anchor="start" x="68.88" y="-721.7" font-family="Helvetica,sans-Serif" text-decoration="underline" font-size="14.00">cycle</text>
<polygon fill="none" stroke="black" points="63.88,-687.5 63.88,-713.25 148.88,-713.25 148.88,-687.5 63.88,-687.5"/>
<text text-anchor="start" x="68.88" y="-695.95" font-family="Helvetica,sans-Serif" text-decoration="underline" font-size="14.00">name</text>
<polygon fill="none" stroke="black" points="63.88,-661.75 63.88,-687.5 148.88,-687.5 148.88,-661.75 63.88,-661.75"/>
<text text-anchor="start" x="68.88" y="-670.2" font-family="Helvetica,sans-Serif" text-decoration="underline" font-size="14.00">flow_nums</text>
<polygon fill="none" stroke="black" points="63.88,-636 63.88,-661.75 148.88,-661.75 148.88,-636 63.88,-636"/>
<text text-anchor="start" x="68.88" y="-643.45" font-family="Helvetica,sans-Serif" font-size="14.00">status</text>
<polygon fill="none" stroke="black" points="63.88,-610.25 63.88,-636 148.88,-636 148.88,-610.25 63.88,-610.25"/>
<text text-anchor="start" x="68.88" y="-617.7" font-family="Helvetica,sans-Serif" font-size="14.00">is_held</text>
</g>
<!-- task_pool&#45;&#45;task_action_timers -->
<g id="edge3" class="edge">
<title>task_pool&#45;&#45;task_action_timers</title>
<path fill="none" stroke="#7f7f7f" stroke-dasharray="5,2" d="M156.6,-751.54C194.2,-799.32 246.93,-866.32 291.24,-922.62"/>
<text text-anchor="start" x="260.49" y="-909.32" font-family="Times,serif" font-size="14.00">{0,1}</text>
<text text-anchor="start" x="156.6" y="-738.24" font-family="Times,serif" font-size="14.00">0..N</text>
</g>
<!-- task_pool&#45;&#45;task_late_flags -->
<g id="edge4" class="edge">
<title>task_pool&#45;&#45;task_late_flags</title>
<path fill="none" stroke="#7f7f7f" stroke-dasharray="5,2" d="M156.6,-715.6C198.52,-738.24 259.22,-771.04 306.12,-796.38"/>
<text text-anchor="start" x="275.37" y="-783.08" font-family="Times,serif" font-size="14.00">{0,1}</text>
<text text-anchor="start" x="156.6" y="-702.3" font-family="Times,serif" font-size="14.00">{0,1}</text>
</g>
<!-- task_pool&#45;&#45;task_outputs -->
<g id="edge5" class="edge">
<title>task_pool&#45;&#45;task_outputs</title>
<path fill="none" stroke="#7f7f7f" stroke-dasharray="5,2" d="M156.6,-689C200.94,-689 266.3,-689 314.1,-689"/>
<text text-anchor="start" x="283.35" y="-675.7" font-family="Times,serif" font-size="14.00">{0,1}</text>
<text text-anchor="start" x="156.6" y="-675.7" font-family="Times,serif" font-size="14.00">0..N</text>
</g>
<!-- task_prerequisites -->
<g id="node11" class="node">
<title>task_prerequisites</title>
<polygon fill="none" stroke="black" points="300.88,-568.75 300.88,-597.5 452.62,-597.5 452.62,-568.75 300.88,-568.75"/>
<text text-anchor="start" x="305.88" y="-578.3" font-family="Helvetica,sans-Serif" font-weight="bold" font-size="16.00">task_prerequisites</text>
<polygon fill="none" stroke="black" points="300.88,-543 300.88,-568.75 452.62,-568.75 452.62,-543 300.88,-543"/>
<text text-anchor="start" x="305.88" y="-551.45" font-family="Helvetica,sans-Serif" text-decoration="underline" font-size="14.00">cycle</text>
<polygon fill="none" stroke="black" points="300.88,-517.25 300.88,-543 452.62,-543 452.62,-517.25 300.88,-517.25"/>
<text text-anchor="start" x="305.88" y="-525.7" font-family="Helvetica,sans-Serif" text-decoration="underline" font-size="14.00">name</text>
<polygon fill="none" stroke="black" points="300.88,-491.5 300.88,-517.25 452.62,-517.25 452.62,-491.5 300.88,-491.5"/>
<text text-anchor="start" x="305.88" y="-499.95" font-family="Helvetica,sans-Serif" text-decoration="underline" font-size="14.00">flow_nums</text>
<polygon fill="none" stroke="black" points="300.88,-465.75 300.88,-491.5 452.62,-491.5 452.62,-465.75 300.88,-465.75"/>
<text text-anchor="start" x="305.88" y="-474.2" font-family="Helvetica,sans-Serif" text-decoration="underline" font-size="14.00">prereq_name</text>
<polygon fill="none" stroke="black" points="300.88,-440 300.88,-465.75 452.62,-465.75 452.62,-440 300.88,-440"/>
<text text-anchor="start" x="305.88" y="-448.45" font-family="Helvetica,sans-Serif" text-decoration="underline" font-size="14.00">prereq_cycle</text>
<polygon fill="none" stroke="black" points="300.88,-414.25 300.88,-440 452.62,-440 452.62,-414.25 300.88,-414.25"/>
<text text-anchor="start" x="305.88" y="-422.7" font-family="Helvetica,sans-Serif" text-decoration="underline" font-size="14.00">prereq_output</text>
<polygon fill="none" stroke="black" points="300.88,-388.5 300.88,-414.25 452.62,-414.25 452.62,-388.5 300.88,-388.5"/>
<text text-anchor="start" x="305.88" y="-395.95" font-family="Helvetica,sans-Serif" font-size="14.00">satisfied</text>
</g>
<!-- task_pool&#45;&#45;task_prerequisites -->
<g id="edge6" class="edge">
<title>task_pool&#45;&#45;task_prerequisites</title>
<path fill="none" stroke="#7f7f7f" stroke-dasharray="5,2" d="M156.6,-653.05C194.73,-625.2 248.42,-585.99 293.11,-553.36"/>
<text text-anchor="start" x="262.36" y="-540.06" font-family="Times,serif" font-size="14.00">{0,1}</text>
<text text-anchor="start" x="156.6" y="-656.25" font-family="Times,serif" font-size="14.00">0..N</text>
</g>
<!-- task_timeout_timers -->
<g id="node13" class="node">
<title>task_timeout_timers</title>
<polygon fill="none" stroke="black" points="293.75,-333.25 293.75,-362 459.75,-362 459.75,-333.25 293.75,-333.25"/>
<text text-anchor="start" x="298.75" y="-342.8" font-family="Helvetica,sans-Serif" font-weight="bold" font-size="16.00">task_timeout_timers</text>
<polygon fill="none" stroke="black" points="293.75,-307.5 293.75,-333.25 459.75,-333.25 459.75,-307.5 293.75,-307.5"/>
<text text-anchor="start" x="298.75" y="-315.95" font-family="Helvetica,sans-Serif" text-decoration="underline" font-size="14.00">cycle</text>
<polygon fill="none" stroke="black" points="293.75,-281.75 293.75,-307.5 459.75,-307.5 459.75,-281.75 293.75,-281.75"/>
<text text-anchor="start" x="298.75" y="-290.2" font-family="Helvetica,sans-Serif" text-decoration="underline" font-size="14.00">name</text>
<polygon fill="none" stroke="black" points="293.75,-256 293.75,-281.75 459.75,-281.75 459.75,-256 293.75,-256"/>
<text text-anchor="start" x="298.75" y="-263.45" font-family="Helvetica,sans-Serif" font-size="14.00">timeout</text>
</g>
<!-- task_pool&#45;&#45;task_timeout_timers -->
<g id="edge7" class="edge">
<title>task_pool&#45;&#45;task_timeout_timers</title>
<path fill="none" stroke="#7f7f7f" stroke-dasharray="5,2" d="M156.7,-655.09C176.46,-639.38 197.99,-619.27 212.75,-597 270.14,-510.43 224.74,-459.06 285.75,-375 288.03,-371.86 290.5,-368.81 293.12,-365.86"/>
<text text-anchor="start" x="262.37" y="-369.06" font-family="Times,serif" font-size="14.00">{0,1}</text>
<text text-anchor="start" x="156.7" y="-641.79" font-family="Times,serif" font-size="14.00">{0,1}</text>
</g>
<!-- task_states -->
<g id="node12" class="node">
<title>task_states</title>
<polygon fill="none" stroke="black" points="46.25,-1664.5 46.25,-1693.25 166.5,-1693.25 166.5,-1664.5 46.25,-1664.5"/>
<text text-anchor="start" x="62.5" y="-1674.05" font-family="Helvetica,sans-Serif" font-weight="bold" font-size="16.00">task_states</text>
<polygon fill="none" stroke="black" points="46.25,-1638.75 46.25,-1664.5 166.5,-1664.5 166.5,-1638.75 46.25,-1638.75"/>
<text text-anchor="start" x="51.25" y="-1647.2" font-family="Helvetica,sans-Serif" text-decoration="underline" font-size="14.00">name</text>
<polygon fill="none" stroke="black" points="46.25,-1613 46.25,-1638.75 166.5,-1638.75 166.5,-1613 46.25,-1613"/>
<text text-anchor="start" x="51.25" y="-1621.45" font-family="Helvetica,sans-Serif" text-decoration="underline" font-size="14.00">cycle</text>
<polygon fill="none" stroke="black" points="46.25,-1587.25 46.25,-1613 166.5,-1613 166.5,-1587.25 46.25,-1587.25"/>
<text text-anchor="start" x="51.25" y="-1595.7" font-family="Helvetica,sans-Serif" text-decoration="underline" font-size="14.00">flow_nums</text>
<polygon fill="none" stroke="black" points="46.25,-1561.5 46.25,-1587.25 166.5,-1587.25 166.5,-1561.5 46.25,-1561.5"/>
<text text-anchor="start" x="51.25" y="-1568.95" font-family="Helvetica,sans-Serif" font-size="14.00">time_created</text>
<polygon fill="none" stroke="black" points="46.25,-1535.75 46.25,-1561.5 166.5,-1561.5 166.5,-1535.75 46.25,-1535.75"/>
<text text-anchor="start" x="51.25" y="-1543.2" font-family="Helvetica,sans-Serif" font-size="14.00">time_updated</text>
<polygon fill="none" stroke="black" points="46.25,-1510 46.25,-1535.75 166.5,-1535.75 166.5,-1510 46.25,-1510"/>
<text text-anchor="start" x="51.25" y="-1517.45" font-family="Helvetica,sans-Serif" font-size="14.00">submit_num</text>
<polygon fill="none" stroke="black" points="46.25,-1484.25 46.25,-1510 166.5,-1510 166.5,-1484.25 46.25,-1484.25"/>
<text text-anchor="start" x="51.25" y="-1491.7" font-family="Helvetica,sans-Serif" font-size="14.00">status</text>
<polygon fill="none" stroke="black" points="46.25,-1458.5 46.25,-1484.25 166.5,-1484.25 166.5,-1458.5 46.25,-1458.5"/>
<text text-anchor="start" x="51.25" y="-1465.95" font-family="Helvetica,sans-Serif" font-size="14.00">flow_wait</text>
<polygon fill="none" stroke="black" points="46.25,-1432.75 46.25,-1458.5 166.5,-1458.5 166.5,-1432.75 46.25,-1432.75"/>
<text text-anchor="start" x="51.25" y="-1440.2" font-family="Helvetica,sans-Serif" font-size="14.00">is_manual_submit</text>
</g>
<!-- task_states&#45;&#45;task_events -->
<g id="edge1" class="edge">
<title>task_states&#45;&#45;task_events</title>
<path fill="none" stroke="#7f7f7f" stroke-dasharray="5,2" d="M174.41,-1605.21C218.5,-1632.98 275.62,-1668.95 317.76,-1695.48"/>
<text text-anchor="start" x="287.01" y="-1698.68" font-family="Times,serif" font-size="14.00">{0,1}</text>
<text text-anchor="start" x="174.41" y="-1591.91" font-family="Times,serif" font-size="14.00">0..N</text>
</g>
<!-- task_states&#45;&#45;task_jobs -->
<g id="edge2" class="edge">
<title>task_states&#45;&#45;task_jobs</title>
<path fill="none" stroke="#7f7f7f" stroke-dasharray="5,2" d="M174.41,-1520.79C215.39,-1494.98 267.64,-1462.08 308.64,-1436.26"/>
<text text-anchor="start" x="277.89" y="-1422.96" font-family="Times,serif" font-size="14.00">{0,1}</text>
<text text-anchor="start" x="174.41" y="-1507.49" font-family="Times,serif" font-size="14.00">0..N</text>
</g>
<!-- tasks_to_hold -->
<g id="node14" class="node">
<title>tasks_to_hold</title>
<polygon fill="none" stroke="black" points="47.38,-1770.38 47.38,-1799.12 165.38,-1799.12 165.38,-1770.38 47.38,-1770.38"/>
<text text-anchor="start" x="52.38" y="-1779.92" font-family="Helvetica,sans-Serif" font-weight="bold" font-size="16.00">tasks_to_hold</text>
<polygon fill="none" stroke="black" points="47.38,-1744.62 47.38,-1770.38 165.38,-1770.38 165.38,-1744.62 47.38,-1744.62"/>
<text text-anchor="start" x="52.38" y="-1752.08" font-family="Helvetica,sans-Serif" font-size="14.00">name</text>
<polygon fill="none" stroke="black" points="47.38,-1718.88 47.38,-1744.62 165.38,-1744.62 165.38,-1718.88 47.38,-1718.88"/>
<text text-anchor="start" x="52.38" y="-1726.33" font-family="Helvetica,sans-Serif" font-size="14.00">cycle</text>
</g>
<!-- workflow_flows -->
<g id="node15" class="node">
<title>workflow_flows</title>
<polygon fill="none" stroke="black" points="41.38,-1902.25 41.38,-1931 171.38,-1931 171.38,-1902.25 41.38,-1902.25"/>
<text text-anchor="start" x="46.38" y="-1911.8" font-family="Helvetica,sans-Serif" font-weight="bold" font-size="16.00">workflow_flows</text>
<polygon fill="none" stroke="black" points="41.38,-1876.5 41.38,-1902.25 171.38,-1902.25 171.38,-1876.5 41.38,-1876.5"/>
<text text-anchor="start" x="46.38" y="-1884.95" font-family="Helvetica,sans-Serif" text-decoration="underline" font-size="14.00">flow_num</text>
<polygon fill="none" stroke="black" points="41.38,-1850.75 41.38,-1876.5 171.38,-1876.5 171.38,-1850.75 41.38,-1850.75"/>
<text text-anchor="start" x="46.38" y="-1858.2" font-family="Helvetica,sans-Serif" font-size="14.00">start_time</text>
<polygon fill="none" stroke="black" points="41.38,-1825 41.38,-1850.75 171.38,-1850.75 171.38,-1825 41.38,-1825"/>
<text text-anchor="start" x="46.38" y="-1832.45" font-family="Helvetica,sans-Serif" font-size="14.00">description</text>
</g>
<!-- workflow_params -->
<g id="node16" class="node">
<title>workflow_params</title>
<polygon fill="none" stroke="black" points="33.5,-2008.38 33.5,-2037.12 179.25,-2037.12 179.25,-2008.38 33.5,-2008.38"/>
<text text-anchor="start" x="38.5" y="-2017.92" font-family="Helvetica,sans-Serif" font-weight="bold" font-size="16.00">workflow_params</text>
<polygon fill="none" stroke="black" points="33.5,-1982.62 33.5,-2008.38 179.25,-2008.38 179.25,-1982.62 33.5,-1982.62"/>
<text text-anchor="start" x="38.5" y="-1991.08" font-family="Helvetica,sans-Serif" text-decoration="underline" font-size="14.00">key</text>
<polygon fill="none" stroke="black" points="33.5,-1956.88 33.5,-1982.62 179.25,-1982.62 179.25,-1956.88 33.5,-1956.88"/>
<text text-anchor="start" x="38.5" y="-1964.33" font-family="Helvetica,sans-Serif" font-size="14.00">value</text>
</g>
<!-- workflow_template_vars -->
<g id="node17" class="node">
<title>workflow_template_vars</title>
<polygon fill="none" stroke="black" points="8,-2114.38 8,-2143.12 204.75,-2143.12 204.75,-2114.38 8,-2114.38"/>
<text text-anchor="start" x="13" y="-2123.93" font-family="Helvetica,sans-Serif" font-weight="bold" font-size="16.00">workflow_template_vars</text>
<polygon fill="none" stroke="black" points="8,-2088.62 8,-2114.38 204.75,-2114.38 204.75,-2088.62 8,-2088.62"/>
<text text-anchor="start" x="13" y="-2097.07" font-family="Helvetica,sans-Serif" text-decoration="underline" font-size="14.00">key</text>
<polygon fill="none" stroke="black" points="8,-2062.88 8,-2088.62 204.75,-2088.62 204.75,-2062.88 8,-2062.88"/>
<text text-anchor="start" x="13" y="-2070.32" font-family="Helvetica,sans-Serif" font-size="14.00">value</text>
</g>
<!-- xtriggers -->
<g id="node18" class="node">
<title>xtriggers</title>
<polygon fill="none" stroke="black" points="28.62,-2452.25 28.62,-2481 184.12,-2481 184.12,-2452.25 28.62,-2452.25"/>
<text text-anchor="start" x="72.25" y="-2461.8" font-family="Helvetica,sans-Serif" font-weight="bold" font-size="16.00">xtriggers</text>
<polygon fill="none" stroke="black" points="28.62,-2426.5 28.62,-2452.25 184.12,-2452.25 184.12,-2426.5 28.62,-2426.5"/>
<text text-anchor="start" x="33.62" y="-2434.95" font-family="Helvetica,sans-Serif" text-decoration="underline" font-size="14.00">signature</text>
<polygon fill="none" stroke="black" points="28.62,-2400.75 28.62,-2426.5 184.12,-2426.5 184.12,-2400.75 28.62,-2400.75"/>
<text text-anchor="start" x="33.62" y="-2408.2" font-family="Helvetica,sans-Serif" font-size="14.00">results</text>
<polygon fill="none" stroke="black" points="28.62,-2375 28.62,-2400.75 184.12,-2400.75 184.12,-2375 28.62,-2375"/>
<text text-anchor="start" x="33.62" y="-2382.45" font-family="Helvetica,sans-Serif" font-size="14.00">absolute_outputs</text>
<polygon fill="none" stroke="black" points="28.62,-2349.25 28.62,-2375 184.12,-2375 184.12,-2349.25 28.62,-2349.25"/>
<text text-anchor="start" x="33.62" y="-2356.7" font-family="Helvetica,sans-Serif" font-size="14.00">broadcast_events</text>
<polygon fill="none" stroke="black" points="28.62,-2323.5 28.62,-2349.25 184.12,-2349.25 184.12,-2323.5 28.62,-2323.5"/>
<text text-anchor="start" x="33.62" y="-2330.95" font-family="Helvetica,sans-Serif" font-size="14.00">broadcast_states</text>
<polygon fill="none" stroke="black" points="28.62,-2297.75 28.62,-2323.5 184.12,-2323.5 184.12,-2297.75 28.62,-2297.75"/>
<text text-anchor="start" x="33.62" y="-2305.2" font-family="Helvetica,sans-Serif" font-size="14.00">inheritance</text>
<polygon fill="none" stroke="black" points="28.62,-2272 28.62,-2297.75 184.12,-2297.75 184.12,-2272 28.62,-2272"/>
<text text-anchor="start" x="33.62" y="-2279.45" font-family="Helvetica,sans-Serif" font-size="14.00">tasks_to_hold</text>
<polygon fill="none" stroke="black" points="28.62,-2246.25 28.62,-2272 184.12,-2272 184.12,-2246.25 28.62,-2246.25"/>
<text text-anchor="start" x="33.62" y="-2253.7" font-family="Helvetica,sans-Serif" font-size="14.00">workflow_flows</text>
<polygon fill="none" stroke="black" points="28.62,-2220.5 28.62,-2246.25 184.12,-2246.25 184.12,-2220.5 28.62,-2220.5"/>
<text text-anchor="start" x="33.62" y="-2227.95" font-family="Helvetica,sans-Serif" font-size="14.00">workflow_params</text>
<polygon fill="none" stroke="black" points="28.62,-2194.75 28.62,-2220.5 184.12,-2220.5 184.12,-2194.75 28.62,-2194.75"/>
<text text-anchor="start" x="33.62" y="-2202.2" font-family="Helvetica,sans-Serif" font-size="14.00">workflow_template_vars</text>
<polygon fill="none" stroke="black" points="28.62,-2169 28.62,-2194.75 184.12,-2194.75 184.12,-2169 28.62,-2169"/>
<text text-anchor="start" x="33.62" y="-2176.45" font-family="Helvetica,sans-Serif" font-size="14.00">xtriggers</text>
</g>
</g>
</svg>
