<?xml version="1.0" encoding="UTF-8" standalone="no"?>
<!DOCTYPE svg PUBLIC "-//W3C//DTD SVG 1.1//EN"
 "http://www.w3.org/Graphics/SVG/1.1/DTD/svg11.dtd">
<!-- Generated by graphviz version 9.0.0 (20231125.0833)
 -->
<!-- Title: example Pages: 1 -->
<svg width="288pt" height="95pt"
 viewBox="0.00 0.00 288.00 95.10" xmlns="http://www.w3.org/2000/svg" xmlns:xlink="http://www.w3.org/1999/xlink">
<g id="graph0" class="graph" transform="scale(0.709704 0.709704) rotate(0) translate(4 130)">
<title>example</title>
<polygon fill="none" stroke="none" points="-4,4 -4,-130 401.8,-130 401.8,4 -4,4"/>
<g id="clust1" class="cluster">
<title>cluster_T06</title>
<polygon fill="none" stroke="black" stroke-dasharray="5,2" points="8,-8 8,-118 121.93,-118 121.93,-8 8,-8"/>
<text text-anchor="middle" x="64.97" y="-100.7" font-family="sans" font-size="14.00">T06</text>
</g>
<g id="clust2" class="cluster">
<title>cluster_T12</title>
<polygon fill="none" stroke="black" stroke-dasharray="5,2" points="141.93,-8 141.93,-118 255.87,-118 255.87,-8 141.93,-8"/>
<text text-anchor="middle" x="198.9" y="-100.7" font-family="sans" font-size="14.00">T12</text>
</g>
<g id="clust3" class="cluster">
<title>cluster_T18</title>
<polygon fill="none" stroke="black" stroke-dasharray="5,2" points="275.87,-8 275.87,-118 389.8,-118 389.8,-8 275.87,-8"/>
<text text-anchor="middle" x="332.84" y="-100.7" font-family="sans" font-size="14.00">T18</text>
</g>
<!-- forecast.t06 -->
<g id="node1" class="node">
<title>forecast.t06</title>
<ellipse fill="none" stroke="black" cx="64.97" cy="-49" rx="48.97" ry="33.23"/>
<text text-anchor="middle" x="64.97" y="-55.2" font-family="sans" font-size="14.00">forecast</text>
<text text-anchor="middle" x="64.97" y="-35.7" font-family="sans" font-size="14.00">T06</text>
</g>
<!-- forecast.t12 -->
<g id="node2" class="node">
<title>forecast.t12</title>
<ellipse fill="none" stroke="black" cx="198.9" cy="-49" rx="48.97" ry="33.23"/>
<text text-anchor="middle" x="198.9" y="-55.2" font-family="sans" font-size="14.00">forecast</text>
<text text-anchor="middle" x="198.9" y="-35.7" font-family="sans" font-size="14.00">T12</text>
</g>
<!-- forecast.t06&#45;&gt;forecast.t12 -->
<g id="edge1" class="edge">
<title>forecast.t06&#45;&gt;forecast.t12</title>
<path fill="none" stroke="black" d="M114.35,-49C122.05,-49 130.11,-49 138.04,-49"/>
<polygon fill="black" stroke="black" points="138.02,-52.5 148.02,-49 138.02,-45.5 138.02,-52.5"/>
</g>
<!-- forecast.t18 -->
<g id="node3" class="node">
<title>forecast.t18</title>
<ellipse fill="none" stroke="black" cx="332.84" cy="-49" rx="48.97" ry="33.23"/>
<text text-anchor="middle" x="332.84" y="-55.2" font-family="sans" font-size="14.00">forecast</text>
<text text-anchor="middle" x="332.84" y="-35.7" font-family="sans" font-size="14.00">T18</text>
</g>
<!-- forecast.t12&#45;&gt;forecast.t18 -->
<g id="edge2" class="edge">
<title>forecast.t12&#45;&gt;forecast.t18</title>
<path fill="none" stroke="black" d="M248.28,-49C255.99,-49 264.04,-49 271.98,-49"/>
<polygon fill="black" stroke="black" points="271.95,-52.5 281.95,-49 271.95,-45.5 271.95,-52.5"/>
</g>
</g>
</svg>
