<?xml version="1.0" encoding="UTF-8" standalone="no"?>
<!DOCTYPE svg PUBLIC "-//W3C//DTD SVG 1.1//EN"
 "http://www.w3.org/Graphics/SVG/1.1/DTD/svg11.dtd">
<!-- Generated by graphviz version 9.0.0 (20231125.0833)
 -->
<!-- Title: Example Pages: 1 -->
<svg width="173pt" height="204pt"
 viewBox="0.00 0.00 173.00 204.17" xmlns="http://www.w3.org/2000/svg" xmlns:xlink="http://www.w3.org/1999/xlink">
<g id="graph0" class="graph" transform="scale(1 1) rotate(0) translate(4 200.17)">
<title>Example</title>
<polygon fill="none" stroke="none" points="-4,4 -4,-200.17 169,-200.17 169,4 -4,4"/>
<g id="clust1" class="cluster">
<title>cluster_1</title>
<polygon fill="none" stroke="red" stroke-dasharray="5,2" points="8,-66.89 8,-149.28 118,-149.28 118,-66.89 8,-66.89"/>
<text text-anchor="middle" x="63" y="-131.98" font-family="sans" font-size="14.00" fill="red">:fail</text>
</g>
<!-- recover -->
<g id="node1" class="node">
<title>recover</title>
<ellipse fill="none" stroke="black" cx="63" cy="-94.34" rx="46.85" ry="19.45"/>
<text text-anchor="middle" x="63" y="-90.79" font-family="sans" font-size="14.00">recover</text>
</g>
<!-- bar -->
<g id="node3" class="node">
<title>bar</title>
<ellipse fill="none" stroke="black" cx="138" cy="-19.45" rx="27" ry="19.45"/>
<text text-anchor="middle" x="138" y="-15.9" font-family="sans" font-size="14.00">bar</text>
</g>
<!-- recover&#45;&gt;bar -->
<g id="edge2" class="edge">
<title>recover&#45;&gt;bar</title>
<path fill="none" stroke="black" d="M80.77,-76.06C90.75,-66.36 103.34,-54.13 114.17,-43.61"/>
<polygon fill="none" stroke="black" points="116.57,-46.15 121.3,-36.67 111.69,-41.13 116.57,-46.15"/>
</g>
<!-- foo -->
<g id="node2" class="node">
<title>foo</title>
<ellipse fill="none" stroke="black" cx="138" cy="-176.73" rx="27" ry="19.45"/>
<text text-anchor="middle" x="138" y="-173.18" font-family="sans" font-size="14.00">foo</text>
</g>
<!-- foo&#45;&gt;recover -->
<g id="edge1" class="edge">
<title>foo&#45;&gt;recover</title>
<path fill="none" stroke="black" d="M123.54,-160.23C113.2,-149.15 99.06,-133.98 87.04,-121.1"/>
<polygon fill="black" stroke="black" points="89.92,-119.06 80.54,-114.13 84.8,-123.83 89.92,-119.06"/>
</g>
<!-- foo&#45;&gt;bar -->
<g id="edge3" class="edge">
<title>foo&#45;&gt;bar</title>
<path fill="none" stroke="black" d="M138,-157C138,-130.53 138,-81.91 138,-50.4"/>
<polygon fill="none" stroke="black" points="141.5,-50.76 138,-40.76 134.5,-50.76 141.5,-50.76"/>
</g>
</g>
</svg>
