<?xml version="1.0" encoding="UTF-8" standalone="no"?>
<!DOCTYPE svg PUBLIC "-//W3C//DTD SVG 1.1//EN"
 "http://www.w3.org/Graphics/SVG/1.1/DTD/svg11.dtd">
<!-- Generated by graphviz version 9.0.0 (20231125.0833)
 -->
<!-- Title: example Pages: 1 -->
<svg width="70pt" height="504pt"
 viewBox="0.00 0.00 70.33 504.00" xmlns="http://www.w3.org/2000/svg" xmlns:xlink="http://www.w3.org/1999/xlink">
<g id="graph0" class="graph" transform="scale(0.423655 0.423655) rotate(0) translate(4 1185.65)">
<title>example</title>
<polygon fill="none" stroke="none" points="-4,4 -4,-1185.65 162,-1185.65 162,4 -4,4"/>
<g id="clust1" class="cluster">
<title>cluster_1</title>
<polygon fill="none" stroke="black" stroke-dasharray="5,2" points="8,-756.28 8,-1173.65 150,-1173.65 150,-756.28 8,-756.28"/>
<text text-anchor="middle" x="79" y="-1156.35" font-family="sans" font-size="14.00">1</text>
</g>
<g id="clust2" class="cluster">
<title>cluster_2</title>
<polygon fill="none" stroke="black" stroke-dasharray="5,2" points="8,-433.37 8,-748.28 150,-748.28 150,-433.37 8,-433.37"/>
<text text-anchor="middle" x="79" y="-730.98" font-family="sans" font-size="14.00">2</text>
</g>
<g id="clust3" class="cluster">
<title>cluster_3</title>
<polygon fill="none" stroke="black" stroke-dasharray="5,2" points="8,-8 8,-425.37 150,-425.37 150,-8 8,-8"/>
<text text-anchor="middle" x="79" y="-408.07" font-family="sans" font-size="14.00">3</text>
</g>
<!-- 1/a -->
<g id="node1" class="node">
<title>1/a</title>
<ellipse fill="none" stroke="black" cx="115" cy="-1104.91" rx="27" ry="33.23"/>
<text text-anchor="middle" x="115" y="-1111.11" font-family="sans" font-size="14.00">a</text>
<text text-anchor="middle" x="115" y="-1091.61" font-family="sans" font-size="14.00">1</text>
</g>
<!-- 1/b -->
<g id="node2" class="node">
<title>1/b</title>
<ellipse fill="none" stroke="black" cx="79" cy="-1002.45" rx="27" ry="33.23"/>
<text text-anchor="middle" x="79" y="-1008.65" font-family="sans" font-size="14.00">b</text>
<text text-anchor="middle" x="79" y="-989.15" font-family="sans" font-size="14.00">1</text>
</g>
<!-- 1/a&#45;&gt;1/b -->
<g id="edge1" class="edge">
<title>1/a&#45;&gt;1/b</title>
<path fill="none" stroke="black" d="M104.3,-1074.04C100.92,-1064.61 97.13,-1054.03 93.53,-1043.99"/>
<polygon fill="black" stroke="black" points="96.9,-1043.03 90.24,-1034.8 90.31,-1045.4 96.9,-1043.03"/>
</g>
<!-- 1/d -->
<g id="node3" class="node">
<title>1/d</title>
<ellipse fill="none" stroke="black" cx="43" cy="-899.98" rx="27" ry="33.23"/>
<text text-anchor="middle" x="43" y="-906.18" font-family="sans" font-size="14.00">d</text>
<text text-anchor="middle" x="43" y="-886.68" font-family="sans" font-size="14.00">1</text>
</g>
<!-- 1/b&#45;&gt;1/d -->
<g id="edge3" class="edge">
<title>1/b&#45;&gt;1/d</title>
<path fill="none" stroke="black" d="M68.3,-971.57C64.92,-962.14 61.13,-951.56 57.53,-941.52"/>
<polygon fill="black" stroke="black" points="60.9,-940.57 54.24,-932.33 54.31,-942.93 60.9,-940.57"/>
</g>
<!-- 1/f -->
<g id="node4" class="node">
<title>1/f</title>
<ellipse fill="none" stroke="black" cx="115" cy="-899.98" rx="27" ry="33.23"/>
<text text-anchor="middle" x="115" y="-906.18" font-family="sans" font-size="14.00">f</text>
<text text-anchor="middle" x="115" y="-886.68" font-family="sans" font-size="14.00">1</text>
</g>
<!-- 1/b&#45;&gt;1/f -->
<g id="edge2" class="edge">
<title>1/b&#45;&gt;1/f</title>
<path fill="none" stroke="black" d="M89.7,-971.57C93.08,-962.14 96.87,-951.56 100.47,-941.52"/>
<polygon fill="black" stroke="black" points="103.69,-942.93 103.76,-932.33 97.1,-940.57 103.69,-942.93"/>
</g>
<!-- 1/e -->
<g id="node6" class="node">
<title>1/e</title>
<ellipse fill="none" stroke="black" cx="43" cy="-797.51" rx="27" ry="33.23"/>
<text text-anchor="middle" x="43" y="-803.71" font-family="sans" font-size="14.00">e</text>
<text text-anchor="middle" x="43" y="-784.21" font-family="sans" font-size="14.00">1</text>
</g>
<!-- 1/d&#45;&gt;1/e -->
<g id="edge13" class="edge">
<title>1/d&#45;&gt;1/e</title>
<path fill="none" stroke="black" d="M43,-866.36C43,-858.74 43,-850.5 43,-842.47"/>
<polygon fill="black" stroke="black" points="46.5,-842.48 43,-832.48 39.5,-842.48 46.5,-842.48"/>
</g>
<!-- 2/c -->
<g id="node11" class="node">
<title>2/c</title>
<ellipse fill="none" stroke="black" cx="115" cy="-679.54" rx="27" ry="33.23"/>
<text text-anchor="middle" x="115" y="-685.74" font-family="sans" font-size="14.00">c</text>
<text text-anchor="middle" x="115" y="-666.24" font-family="sans" font-size="14.00">2</text>
</g>
<!-- 1/f&#45;&gt;2/c -->
<g id="edge17" class="edge">
<title>1/f&#45;&gt;2/c</title>
<path fill="none" stroke="black" d="M115,-866.28C115,-828.53 115,-766.27 115,-724.36"/>
<polygon fill="black" stroke="black" points="118.5,-724.62 115,-714.62 111.5,-724.62 118.5,-724.62"/>
</g>
<!-- 1/c -->
<g id="node5" class="node">
<title>1/c</title>
<ellipse fill="none" stroke="black" cx="43" cy="-1104.91" rx="27" ry="33.23"/>
<text text-anchor="middle" x="43" y="-1111.11" font-family="sans" font-size="14.00">c</text>
<text text-anchor="middle" x="43" y="-1091.61" font-family="sans" font-size="14.00">1</text>
</g>
<!-- 1/c&#45;&gt;1/b -->
<g id="edge4" class="edge">
<title>1/c&#45;&gt;1/b</title>
<path fill="none" stroke="black" d="M53.7,-1074.04C57.08,-1064.61 60.87,-1054.03 64.47,-1043.99"/>
<polygon fill="black" stroke="black" points="67.69,-1045.4 67.76,-1034.8 61.1,-1043.03 67.69,-1045.4"/>
</g>
<!-- 2/a -->
<g id="node7" class="node">
<title>2/a</title>
<ellipse fill="none" stroke="black" cx="43" cy="-679.54" rx="27" ry="33.23"/>
<text text-anchor="middle" x="43" y="-685.74" font-family="sans" font-size="14.00">a</text>
<text text-anchor="middle" x="43" y="-666.24" font-family="sans" font-size="14.00">2</text>
</g>
<!-- 1/e&#45;&gt;2/a -->
<g id="edge14" class="edge">
<title>1/e&#45;&gt;2/a</title>
<path fill="none" stroke="black" d="M43,-763.9C43,-751.57 43,-737.33 43,-724.15"/>
<polygon fill="black" stroke="black" points="46.5,-724.42 43,-714.42 39.5,-724.42 46.5,-724.42"/>
</g>
<!-- 2/b -->
<g id="node8" class="node">
<title>2/b</title>
<ellipse fill="none" stroke="black" cx="43" cy="-577.07" rx="27" ry="33.23"/>
<text text-anchor="middle" x="43" y="-583.27" font-family="sans" font-size="14.00">b</text>
<text text-anchor="middle" x="43" y="-563.77" font-family="sans" font-size="14.00">2</text>
</g>
<!-- 2/a&#45;&gt;2/b -->
<g id="edge5" class="edge">
<title>2/a&#45;&gt;2/b</title>
<path fill="none" stroke="black" d="M43,-645.92C43,-638.3 43,-630.06 43,-622.03"/>
<polygon fill="black" stroke="black" points="46.5,-622.04 43,-612.04 39.5,-622.04 46.5,-622.04"/>
</g>
<!-- 2/d -->
<g id="node9" class="node">
<title>2/d</title>
<ellipse fill="none" stroke="black" cx="43" cy="-474.61" rx="27" ry="33.23"/>
<text text-anchor="middle" x="43" y="-480.81" font-family="sans" font-size="14.00">d</text>
<text text-anchor="middle" x="43" y="-461.31" font-family="sans" font-size="14.00">2</text>
</g>
<!-- 2/b&#45;&gt;2/d -->
<g id="edge7" class="edge">
<title>2/b&#45;&gt;2/d</title>
<path fill="none" stroke="black" d="M43,-543.46C43,-535.83 43,-527.59 43,-519.57"/>
<polygon fill="black" stroke="black" points="46.5,-519.58 43,-509.58 39.5,-519.58 46.5,-519.58"/>
</g>
<!-- 2/f -->
<g id="node10" class="node">
<title>2/f</title>
<ellipse fill="none" stroke="black" cx="115" cy="-474.61" rx="27" ry="33.23"/>
<text text-anchor="middle" x="115" y="-480.81" font-family="sans" font-size="14.00">f</text>
<text text-anchor="middle" x="115" y="-461.31" font-family="sans" font-size="14.00">2</text>
</g>
<!-- 2/b&#45;&gt;2/f -->
<g id="edge6" class="edge">
<title>2/b&#45;&gt;2/f</title>
<path fill="none" stroke="black" d="M60.61,-551.5C69.68,-538.85 80.87,-523.23 90.74,-509.46"/>
<polygon fill="black" stroke="black" points="93.46,-511.68 96.44,-501.51 87.77,-507.6 93.46,-511.68"/>
</g>
<!-- 3/a -->
<g id="node12" class="node">
<title>3/a</title>
<ellipse fill="none" stroke="black" cx="43" cy="-356.64" rx="27" ry="33.23"/>
<text text-anchor="middle" x="43" y="-362.84" font-family="sans" font-size="14.00">a</text>
<text text-anchor="middle" x="43" y="-343.34" font-family="sans" font-size="14.00">3</text>
</g>
<!-- 2/d&#45;&gt;3/a -->
<g id="edge16" class="edge">
<title>2/d&#45;&gt;3/a</title>
<path fill="none" stroke="black" d="M43,-440.99C43,-428.66 43,-414.42 43,-401.24"/>
<polygon fill="black" stroke="black" points="46.5,-401.52 43,-391.52 39.5,-401.52 46.5,-401.52"/>
</g>
<!-- 3/c -->
<g id="node16" class="node">
<title>3/c</title>
<ellipse fill="none" stroke="black" cx="115" cy="-356.64" rx="27" ry="33.23"/>
<text text-anchor="middle" x="115" y="-362.84" font-family="sans" font-size="14.00">c</text>
<text text-anchor="middle" x="115" y="-343.34" font-family="sans" font-size="14.00">3</text>
</g>
<!-- 2/f&#45;&gt;3/c -->
<g id="edge18" class="edge">
<title>2/f&#45;&gt;3/c</title>
<path fill="none" stroke="black" d="M115,-440.99C115,-428.66 115,-414.42 115,-401.24"/>
<polygon fill="black" stroke="black" points="118.5,-401.52 115,-391.52 111.5,-401.52 118.5,-401.52"/>
</g>
<!-- 2/c&#45;&gt;2/b -->
<g id="edge8" class="edge">
<title>2/c&#45;&gt;2/b</title>
<path fill="none" stroke="black" d="M97.39,-653.96C88.32,-641.32 77.13,-625.7 67.26,-611.93"/>
<polygon fill="black" stroke="black" points="70.23,-610.07 61.56,-603.98 64.54,-614.14 70.23,-610.07"/>
</g>
<!-- 3/b -->
<g id="node13" class="node">
<title>3/b</title>
<ellipse fill="none" stroke="black" cx="79" cy="-254.17" rx="27" ry="33.23"/>
<text text-anchor="middle" x="79" y="-260.37" font-family="sans" font-size="14.00">b</text>
<text text-anchor="middle" x="79" y="-240.87" font-family="sans" font-size="14.00">3</text>
</g>
<!-- 3/a&#45;&gt;3/b -->
<g id="edge9" class="edge">
<title>3/a&#45;&gt;3/b</title>
<path fill="none" stroke="black" d="M53.7,-325.77C57.08,-316.34 60.87,-305.75 64.47,-295.71"/>
<polygon fill="black" stroke="black" points="67.69,-297.12 67.76,-286.53 61.1,-294.76 67.69,-297.12"/>
</g>
<!-- 3/d -->
<g id="node14" class="node">
<title>3/d</title>
<ellipse fill="none" stroke="black" cx="43" cy="-151.7" rx="27" ry="33.23"/>
<text text-anchor="middle" x="43" y="-157.9" font-family="sans" font-size="14.00">d</text>
<text text-anchor="middle" x="43" y="-138.4" font-family="sans" font-size="14.00">3</text>
</g>
<!-- 3/b&#45;&gt;3/d -->
<g id="edge11" class="edge">
<title>3/b&#45;&gt;3/d</title>
<path fill="none" stroke="black" d="M68.3,-223.3C64.92,-213.87 61.13,-203.29 57.53,-193.24"/>
<polygon fill="black" stroke="black" points="60.9,-192.29 54.24,-184.06 54.31,-194.65 60.9,-192.29"/>
</g>
<!-- 3/f -->
<g id="node15" class="node">
<title>3/f</title>
<ellipse fill="none" stroke="black" cx="115" cy="-151.7" rx="27" ry="33.23"/>
<text text-anchor="middle" x="115" y="-157.9" font-family="sans" font-size="14.00">f</text>
<text text-anchor="middle" x="115" y="-138.4" font-family="sans" font-size="14.00">3</text>
</g>
<!-- 3/b&#45;&gt;3/f -->
<g id="edge10" class="edge">
<title>3/b&#45;&gt;3/f</title>
<path fill="none" stroke="black" d="M89.7,-223.3C93.08,-213.87 96.87,-203.29 100.47,-193.24"/>
<polygon fill="black" stroke="black" points="103.69,-194.65 103.76,-184.06 97.1,-192.29 103.69,-194.65"/>
</g>
<!-- 3/e -->
<g id="node17" class="node">
<title>3/e</title>
<ellipse fill="none" stroke="black" cx="43" cy="-49.23" rx="27" ry="33.23"/>
<text text-anchor="middle" x="43" y="-55.43" font-family="sans" font-size="14.00">e</text>
<text text-anchor="middle" x="43" y="-35.93" font-family="sans" font-size="14.00">3</text>
</g>
<!-- 3/d&#45;&gt;3/e -->
<g id="edge15" class="edge">
<title>3/d&#45;&gt;3/e</title>
<path fill="none" stroke="black" d="M43,-118.08C43,-110.46 43,-102.22 43,-94.19"/>
<polygon fill="black" stroke="black" points="46.5,-94.2 43,-84.2 39.5,-94.2 46.5,-94.2"/>
</g>
<!-- 3/c&#45;&gt;3/b -->
<g id="edge12" class="edge">
<title>3/c&#45;&gt;3/b</title>
<path fill="none" stroke="black" d="M104.3,-325.77C100.92,-316.34 97.13,-305.75 93.53,-295.71"/>
<polygon fill="black" stroke="black" points="96.9,-294.76 90.24,-286.53 90.31,-297.12 96.9,-294.76"/>
</g>
</g>
</svg>
