<?xml version="1.0" encoding="UTF-8" standalone="no"?>
<!DOCTYPE svg PUBLIC "-//W3C//DTD SVG 1.1//EN"
 "http://www.w3.org/Graphics/SVG/1.1/DTD/svg11.dtd">
<!-- Generated by graphviz version 9.0.0 (20231125.0833)
 -->
<!-- Title: example Pages: 1 -->
<svg width="324pt" height="625pt"
 viewBox="0.00 0.00 324.00 624.61" xmlns="http://www.w3.org/2000/svg" xmlns:xlink="http://www.w3.org/1999/xlink">
<g id="graph0" class="graph" transform="scale(0.450626 0.450626) rotate(0) translate(4 1382.08)">
<title>example</title>
<polygon fill="none" stroke="none" points="-4,4 -4,-1382.08 715,-1382.08 715,4 -4,4"/>
<g id="clust1" class="cluster">
<title>cluster_1</title>
<polygon fill="none" stroke="black" stroke-dasharray="5,2" points="8,-945.21 8,-1370.08 344,-1370.08 344,-945.21 8,-945.21"/>
<text text-anchor="middle" x="176" y="-1352.78" font-family="sans" font-size="14.00">1</text>
</g>
<g id="clust2" class="cluster">
<title>cluster_2</title>
<polygon fill="none" stroke="black" stroke-dasharray="5,2" points="367,-630.31 367,-1055.18 703,-1055.18 703,-630.31 367,-630.31"/>
<text text-anchor="middle" x="535" y="-1037.88" font-family="sans" font-size="14.00">2</text>
</g>
<g id="clust3" class="cluster">
<title>cluster_3</title>
<polygon fill="none" stroke="black" stroke-dasharray="5,2" points="23,-315.4 23,-740.28 359,-740.28 359,-315.4 23,-315.4"/>
<text text-anchor="middle" x="191" y="-722.98" font-family="sans" font-size="14.00">3</text>
</g>
<g id="clust4" class="cluster">
<title>cluster_4</title>
<polygon fill="none" stroke="black" stroke-dasharray="5,2" points="367,-8 367,-425.37 703,-425.37 703,-8 367,-8"/>
<text text-anchor="middle" x="535" y="-408.07" font-family="sans" font-size="14.00">4</text>
</g>
<!-- 1/pur -->
<g id="node1" class="node">
<title>1/pur</title>
<ellipse fill="none" stroke="black" cx="249" cy="-1301.35" rx="87.15" ry="33.23"/>
<text text-anchor="middle" x="249" y="-1307.55" font-family="sans" font-size="14.00">buy_ingredients</text>
<text text-anchor="middle" x="249" y="-1288.05" font-family="sans" font-size="14.00">1</text>
</g>
<!-- 1/mak -->
<g id="node2" class="node">
<title>1/mak</title>
<ellipse fill="none" stroke="black" cx="265" cy="-1198.88" rx="71.24" ry="33.23"/>
<text text-anchor="middle" x="265" y="-1205.08" font-family="sans" font-size="14.00">make_dough</text>
<text text-anchor="middle" x="265" y="-1185.58" font-family="sans" font-size="14.00">1</text>
</g>
<!-- 1/pur&#45;&gt;1/mak -->
<g id="edge1" class="edge">
<title>1/pur&#45;&gt;1/mak</title>
<path fill="none" stroke="black" d="M254.19,-1267.73C255.42,-1260.02 256.75,-1251.68 258.04,-1243.56"/>
<polygon fill="black" stroke="black" points="261.48,-1244.26 259.59,-1233.83 254.56,-1243.16 261.48,-1244.26"/>
</g>
<!-- 1/bak -->
<g id="node3" class="node">
<title>1/bak</title>
<ellipse fill="none" stroke="black" cx="198" cy="-1096.41" rx="64.88" ry="33.23"/>
<text text-anchor="middle" x="198" y="-1102.61" font-family="sans" font-size="14.00">bake_bread</text>
<text text-anchor="middle" x="198" y="-1083.11" font-family="sans" font-size="14.00">1</text>
</g>
<!-- 1/mak&#45;&gt;1/bak -->
<g id="edge2" class="edge">
<title>1/mak&#45;&gt;1/bak</title>
<path fill="none" stroke="black" d="M244.17,-1166.64C238.06,-1157.49 231.29,-1147.34 224.87,-1137.7"/>
<polygon fill="black" stroke="black" points="227.89,-1135.93 219.43,-1129.55 222.07,-1139.81 227.89,-1135.93"/>
</g>
<!-- 1/sel -->
<g id="node4" class="node">
<title>1/sel</title>
<ellipse fill="none" stroke="black" cx="128" cy="-986.45" rx="58.51" ry="33.23"/>
<text text-anchor="middle" x="128" y="-992.65" font-family="sans" font-size="14.00">sell_bread</text>
<text text-anchor="middle" x="128" y="-973.15" font-family="sans" font-size="14.00">1</text>
</g>
<!-- 1/bak&#45;&gt;1/sel -->
<g id="edge3" class="edge">
<title>1/bak&#45;&gt;1/sel</title>
<path fill="none" stroke="black" d="M177.94,-1064.48C170.48,-1052.97 161.91,-1039.74 153.99,-1027.54"/>
<polygon fill="black" stroke="black" points="157.02,-1025.77 148.64,-1019.29 151.15,-1029.58 157.02,-1025.77"/>
</g>
<!-- 1/cle -->
<g id="node5" class="node">
<title>1/cle</title>
<ellipse fill="none" stroke="black" cx="272" cy="-986.45" rx="63.29" ry="33.23"/>
<text text-anchor="middle" x="272" y="-992.65" font-family="sans" font-size="14.00">clean_oven</text>
<text text-anchor="middle" x="272" y="-973.15" font-family="sans" font-size="14.00">1</text>
</g>
<!-- 1/bak&#45;&gt;1/cle -->
<g id="edge5" class="edge">
<title>1/bak&#45;&gt;1/cle</title>
<path fill="none" stroke="black" d="M219.01,-1064.76C226.98,-1053.14 236.17,-1039.73 244.64,-1027.37"/>
<polygon fill="black" stroke="black" points="247.32,-1029.65 250.08,-1019.42 241.54,-1025.69 247.32,-1029.65"/>
</g>
<!-- 3/pur -->
<g id="node13" class="node">
<title>3/pur</title>
<ellipse fill="none" stroke="black" cx="125" cy="-671.54" rx="87.15" ry="33.23"/>
<text text-anchor="middle" x="125" y="-677.74" font-family="sans" font-size="14.00">buy_ingredients</text>
<text text-anchor="middle" x="125" y="-658.24" font-family="sans" font-size="14.00">3</text>
</g>
<!-- 1/sel&#45;&gt;3/pur -->
<g id="edge7" class="edge">
<title>1/sel&#45;&gt;3/pur</title>
<path fill="none" stroke="black" d="M127.69,-952.85C127.14,-896.26 126.03,-779.84 125.42,-716.29"/>
<polygon fill="black" stroke="black" points="128.92,-716.55 125.33,-706.58 121.92,-716.62 128.92,-716.55"/>
</g>
<!-- 2/pre -->
<g id="node12" class="node">
<title>2/pre</title>
<ellipse fill="none" stroke="black" cx="455" cy="-883.98" rx="79.73" ry="33.23"/>
<text text-anchor="middle" x="455" y="-890.18" font-family="sans" font-size="14.00">pre_heat_oven</text>
<text text-anchor="middle" x="455" y="-870.68" font-family="sans" font-size="14.00">2</text>
</g>
<!-- 1/cle&#45;&gt;2/pre -->
<g id="edge6" class="edge">
<title>1/cle&#45;&gt;2/pre</title>
<path fill="none" stroke="black" d="M314.91,-961.89C339.54,-948.37 370.8,-931.2 397.54,-916.53"/>
<polygon fill="black" stroke="black" points="399.13,-919.64 406.21,-911.76 395.76,-913.51 399.13,-919.64"/>
</g>
<!-- 1/pre -->
<g id="node6" class="node">
<title>1/pre</title>
<ellipse fill="none" stroke="black" cx="96" cy="-1198.88" rx="79.73" ry="33.23"/>
<text text-anchor="middle" x="96" y="-1205.08" font-family="sans" font-size="14.00">pre_heat_oven</text>
<text text-anchor="middle" x="96" y="-1185.58" font-family="sans" font-size="14.00">1</text>
</g>
<!-- 1/pre&#45;&gt;1/bak -->
<g id="edge4" class="edge">
<title>1/pre&#45;&gt;1/bak</title>
<path fill="none" stroke="black" d="M126.6,-1167.74C137.28,-1157.23 149.37,-1145.31 160.54,-1134.31"/>
<polygon fill="black" stroke="black" points="162.72,-1137.07 167.39,-1127.56 157.81,-1132.09 162.72,-1137.07"/>
</g>
<!-- 2/pur -->
<g id="node7" class="node">
<title>2/pur</title>
<ellipse fill="none" stroke="black" cx="608" cy="-986.45" rx="87.15" ry="33.23"/>
<text text-anchor="middle" x="608" y="-992.65" font-family="sans" font-size="14.00">buy_ingredients</text>
<text text-anchor="middle" x="608" y="-973.15" font-family="sans" font-size="14.00">2</text>
</g>
<!-- 2/mak -->
<g id="node8" class="node">
<title>2/mak</title>
<ellipse fill="none" stroke="black" cx="624" cy="-883.98" rx="71.24" ry="33.23"/>
<text text-anchor="middle" x="624" y="-890.18" font-family="sans" font-size="14.00">make_dough</text>
<text text-anchor="middle" x="624" y="-870.68" font-family="sans" font-size="14.00">2</text>
</g>
<!-- 2/pur&#45;&gt;2/mak -->
<g id="edge8" class="edge">
<title>2/pur&#45;&gt;2/mak</title>
<path fill="none" stroke="black" d="M613.19,-952.83C614.42,-945.12 615.75,-936.77 617.04,-928.66"/>
<polygon fill="black" stroke="black" points="620.48,-929.35 618.59,-918.93 613.56,-928.25 620.48,-929.35"/>
</g>
<!-- 2/bak -->
<g id="node9" class="node">
<title>2/bak</title>
<ellipse fill="none" stroke="black" cx="522" cy="-781.51" rx="64.88" ry="33.23"/>
<text text-anchor="middle" x="522" y="-787.71" font-family="sans" font-size="14.00">bake_bread</text>
<text text-anchor="middle" x="522" y="-768.21" font-family="sans" font-size="14.00">2</text>
</g>
<!-- 2/mak&#45;&gt;2/bak -->
<g id="edge9" class="edge">
<title>2/mak&#45;&gt;2/bak</title>
<path fill="none" stroke="black" d="M593.95,-853.38C583.17,-842.76 570.87,-830.65 559.54,-819.48"/>
<polygon fill="black" stroke="black" points="562.14,-817.14 552.56,-812.62 557.23,-822.13 562.14,-817.14"/>
</g>
<!-- 2/sel -->
<g id="node10" class="node">
<title>2/sel</title>
<ellipse fill="none" stroke="black" cx="589" cy="-671.54" rx="58.51" ry="33.23"/>
<text text-anchor="middle" x="589" y="-677.74" font-family="sans" font-size="14.00">sell_bread</text>
<text text-anchor="middle" x="589" y="-658.24" font-family="sans" font-size="14.00">2</text>
</g>
<!-- 2/bak&#45;&gt;2/sel -->
<g id="edge10" class="edge">
<title>2/bak&#45;&gt;2/sel</title>
<path fill="none" stroke="black" d="M541.2,-749.57C548.34,-738.07 556.55,-724.84 564.12,-712.63"/>
<polygon fill="black" stroke="black" points="566.93,-714.74 569.23,-704.4 560.98,-711.05 566.93,-714.74"/>
</g>
<!-- 2/cle -->
<g id="node11" class="node">
<title>2/cle</title>
<ellipse fill="none" stroke="black" cx="445" cy="-671.54" rx="63.29" ry="33.23"/>
<text text-anchor="middle" x="445" y="-677.74" font-family="sans" font-size="14.00">clean_oven</text>
<text text-anchor="middle" x="445" y="-658.24" font-family="sans" font-size="14.00">2</text>
</g>
<!-- 2/bak&#45;&gt;2/cle -->
<g id="edge12" class="edge">
<title>2/bak&#45;&gt;2/cle</title>
<path fill="none" stroke="black" d="M500.14,-749.86C491.78,-738.14 482.12,-724.59 473.25,-712.15"/>
<polygon fill="black" stroke="black" points="476.18,-710.24 467.53,-704.13 470.48,-714.3 476.18,-710.24"/>
</g>
<!-- 4/pur -->
<g id="node19" class="node">
<title>4/pur</title>
<ellipse fill="none" stroke="black" cx="606" cy="-356.64" rx="87.15" ry="33.23"/>
<text text-anchor="middle" x="606" y="-362.84" font-family="sans" font-size="14.00">buy_ingredients</text>
<text text-anchor="middle" x="606" y="-343.34" font-family="sans" font-size="14.00">4</text>
</g>
<!-- 2/sel&#45;&gt;4/pur -->
<g id="edge14" class="edge">
<title>2/sel&#45;&gt;4/pur</title>
<path fill="none" stroke="black" d="M590.77,-637.94C593.85,-581.36 600.17,-464.94 603.62,-401.39"/>
<polygon fill="black" stroke="black" points="607.1,-401.85 604.15,-391.68 600.11,-401.47 607.1,-401.85"/>
</g>
<!-- 3/pre -->
<g id="node18" class="node">
<title>3/pre</title>
<ellipse fill="none" stroke="black" cx="271" cy="-569.07" rx="79.73" ry="33.23"/>
<text text-anchor="middle" x="271" y="-575.27" font-family="sans" font-size="14.00">pre_heat_oven</text>
<text text-anchor="middle" x="271" y="-555.77" font-family="sans" font-size="14.00">3</text>
</g>
<!-- 2/cle&#45;&gt;3/pre -->
<g id="edge13" class="edge">
<title>2/cle&#45;&gt;3/pre</title>
<path fill="none" stroke="black" d="M402.88,-646.22C380.07,-633.05 351.6,-616.61 326.95,-602.38"/>
<polygon fill="black" stroke="black" points="328.73,-599.37 318.32,-597.4 325.23,-605.43 328.73,-599.37"/>
</g>
<!-- 2/pre&#45;&gt;2/bak -->
<g id="edge11" class="edge">
<title>2/pre&#45;&gt;2/bak</title>
<path fill="none" stroke="black" d="M476.02,-851.47C482.12,-842.32 488.86,-832.2 495.27,-822.6"/>
<polygon fill="black" stroke="black" points="498.04,-824.74 500.68,-814.48 492.22,-820.86 498.04,-824.74"/>
</g>
<!-- 3/mak -->
<g id="node14" class="node">
<title>3/mak</title>
<ellipse fill="none" stroke="black" cx="102" cy="-569.07" rx="71.24" ry="33.23"/>
<text text-anchor="middle" x="102" y="-575.27" font-family="sans" font-size="14.00">make_dough</text>
<text text-anchor="middle" x="102" y="-555.77" font-family="sans" font-size="14.00">3</text>
</g>
<!-- 3/pur&#45;&gt;3/mak -->
<g id="edge15" class="edge">
<title>3/pur&#45;&gt;3/mak</title>
<path fill="none" stroke="black" d="M117.6,-638.2C115.79,-630.31 113.83,-621.75 111.93,-613.44"/>
<polygon fill="black" stroke="black" points="115.37,-612.8 109.73,-603.83 108.55,-614.36 115.37,-612.8"/>
</g>
<!-- 3/bak -->
<g id="node15" class="node">
<title>3/bak</title>
<ellipse fill="none" stroke="black" cx="209" cy="-466.61" rx="64.88" ry="33.23"/>
<text text-anchor="middle" x="209" y="-472.81" font-family="sans" font-size="14.00">bake_bread</text>
<text text-anchor="middle" x="209" y="-453.31" font-family="sans" font-size="14.00">3</text>
</g>
<!-- 3/mak&#45;&gt;3/bak -->
<g id="edge16" class="edge">
<title>3/mak&#45;&gt;3/bak</title>
<path fill="none" stroke="black" d="M133.24,-538.74C144.86,-527.83 158.2,-515.31 170.41,-503.84"/>
<polygon fill="black" stroke="black" points="172.65,-506.54 177.54,-497.14 167.86,-501.44 172.65,-506.54"/>
</g>
<!-- 3/sel -->
<g id="node16" class="node">
<title>3/sel</title>
<ellipse fill="none" stroke="black" cx="148" cy="-356.64" rx="58.51" ry="33.23"/>
<text text-anchor="middle" x="148" y="-362.84" font-family="sans" font-size="14.00">sell_bread</text>
<text text-anchor="middle" x="148" y="-343.34" font-family="sans" font-size="14.00">3</text>
</g>
<!-- 3/bak&#45;&gt;3/sel -->
<g id="edge17" class="edge">
<title>3/bak&#45;&gt;3/sel</title>
<path fill="none" stroke="black" d="M191.36,-434.38C185.03,-423.19 177.81,-410.4 171.09,-398.51"/>
<polygon fill="black" stroke="black" points="174.31,-397.1 166.35,-390.11 168.22,-400.54 174.31,-397.1"/>
</g>
<!-- 3/cle -->
<g id="node17" class="node">
<title>3/cle</title>
<ellipse fill="none" stroke="black" cx="288" cy="-356.64" rx="63.29" ry="33.23"/>
<text text-anchor="middle" x="288" y="-362.84" font-family="sans" font-size="14.00">clean_oven</text>
<text text-anchor="middle" x="288" y="-343.34" font-family="sans" font-size="14.00">3</text>
</g>
<!-- 3/bak&#45;&gt;3/cle -->
<g id="edge19" class="edge">
<title>3/bak&#45;&gt;3/cle</title>
<path fill="none" stroke="black" d="M231.43,-434.96C240.01,-423.23 249.92,-409.69 259.02,-397.24"/>
<polygon fill="black" stroke="black" points="261.82,-399.35 264.9,-389.21 256.17,-395.22 261.82,-399.35"/>
</g>
<!-- 4/pre -->
<g id="node24" class="node">
<title>4/pre</title>
<ellipse fill="none" stroke="black" cx="455" cy="-254.17" rx="79.73" ry="33.23"/>
<text text-anchor="middle" x="455" y="-260.37" font-family="sans" font-size="14.00">pre_heat_oven</text>
<text text-anchor="middle" x="455" y="-240.87" font-family="sans" font-size="14.00">4</text>
</g>
<!-- 3/cle&#45;&gt;4/pre -->
<g id="edge20" class="edge">
<title>3/cle&#45;&gt;4/pre</title>
<path fill="none" stroke="black" d="M328.85,-331.06C350.4,-318.1 377.12,-302.02 400.42,-288.01"/>
<polygon fill="black" stroke="black" points="402.11,-291.08 408.87,-282.92 398.5,-285.08 402.11,-291.08"/>
</g>
<!-- 3/pre&#45;&gt;3/bak -->
<g id="edge18" class="edge">
<title>3/pre&#45;&gt;3/bak</title>
<path fill="none" stroke="black" d="M251.55,-536.56C246.02,-527.59 239.91,-517.69 234.09,-508.26"/>
<polygon fill="black" stroke="black" points="237.19,-506.62 228.96,-499.95 231.23,-510.3 237.19,-506.62"/>
</g>
<!-- 4/mak -->
<g id="node20" class="node">
<title>4/mak</title>
<ellipse fill="none" stroke="black" cx="624" cy="-254.17" rx="71.24" ry="33.23"/>
<text text-anchor="middle" x="624" y="-260.37" font-family="sans" font-size="14.00">make_dough</text>
<text text-anchor="middle" x="624" y="-240.87" font-family="sans" font-size="14.00">4</text>
</g>
<!-- 4/pur&#45;&gt;4/mak -->
<g id="edge21" class="edge">
<title>4/pur&#45;&gt;4/mak</title>
<path fill="none" stroke="black" d="M611.84,-323.02C613.23,-315.31 614.72,-306.96 616.17,-298.85"/>
<polygon fill="black" stroke="black" points="619.6,-299.58 617.92,-289.12 612.71,-298.34 619.6,-299.58"/>
</g>
<!-- 4/bak -->
<g id="node21" class="node">
<title>4/bak</title>
<ellipse fill="none" stroke="black" cx="519" cy="-151.7" rx="64.88" ry="33.23"/>
<text text-anchor="middle" x="519" y="-157.9" font-family="sans" font-size="14.00">bake_bread</text>
<text text-anchor="middle" x="519" y="-138.4" font-family="sans" font-size="14.00">4</text>
</g>
<!-- 4/mak&#45;&gt;4/bak -->
<g id="edge22" class="edge">
<title>4/mak&#45;&gt;4/bak</title>
<path fill="none" stroke="black" d="M593.35,-223.84C582.04,-213.02 569.08,-200.62 557.18,-189.23"/>
<polygon fill="black" stroke="black" points="559.89,-186.98 550.24,-182.59 555.05,-192.04 559.89,-186.98"/>
</g>
<!-- 4/sel -->
<g id="node22" class="node">
<title>4/sel</title>
<ellipse fill="none" stroke="black" cx="444" cy="-49.23" rx="58.51" ry="33.23"/>
<text text-anchor="middle" x="444" y="-55.43" font-family="sans" font-size="14.00">sell_bread</text>
<text text-anchor="middle" x="444" y="-35.93" font-family="sans" font-size="14.00">4</text>
</g>
<!-- 4/bak&#45;&gt;4/sel -->
<g id="edge23" class="edge">
<title>4/bak&#45;&gt;4/sel</title>
<path fill="none" stroke="black" d="M496.29,-120.29C489.03,-110.56 480.89,-99.65 473.23,-89.39"/>
<polygon fill="black" stroke="black" points="476.06,-87.33 467.28,-81.41 470.45,-91.52 476.06,-87.33"/>
</g>
<!-- 4/cle -->
<g id="node23" class="node">
<title>4/cle</title>
<ellipse fill="none" stroke="black" cx="584" cy="-49.23" rx="63.29" ry="33.23"/>
<text text-anchor="middle" x="584" y="-55.43" font-family="sans" font-size="14.00">clean_oven</text>
<text text-anchor="middle" x="584" y="-35.93" font-family="sans" font-size="14.00">4</text>
</g>
<!-- 4/bak&#45;&gt;4/cle -->
<g id="edge25" class="edge">
<title>4/bak&#45;&gt;4/cle</title>
<path fill="none" stroke="black" d="M539.03,-119.74C545.02,-110.48 551.67,-100.2 557.98,-90.45"/>
<polygon fill="black" stroke="black" points="560.83,-92.49 563.32,-82.19 554.95,-88.69 560.83,-92.49"/>
</g>
<!-- 4/pre&#45;&gt;4/bak -->
<g id="edge24" class="edge">
<title>4/pre&#45;&gt;4/bak</title>
<path fill="none" stroke="black" d="M475.07,-221.66C480.79,-212.69 487.09,-202.79 493.1,-193.36"/>
<polygon fill="black" stroke="black" points="495.98,-195.35 498.4,-185.04 490.08,-191.59 495.98,-195.35"/>
</g>
</g>
</svg>
