<?xml version="1.0" encoding="UTF-8" standalone="no"?>
<!DOCTYPE svg PUBLIC "-//W3C//DTD SVG 1.1//EN"
 "http://www.w3.org/Graphics/SVG/1.1/DTD/svg11.dtd">
<!-- Generated by graphviz version 9.0.0 (20231125.0833)
 -->
<!-- Title: Example Pages: 1 -->
<svg width="62pt" height="197pt"
 viewBox="0.00 0.00 62.45 196.67" xmlns="http://www.w3.org/2000/svg" xmlns:xlink="http://www.w3.org/1999/xlink">
<g id="graph0" class="graph" transform="scale(1 1) rotate(0) translate(4 192.67)">
<title>Example</title>
<polygon fill="none" stroke="none" points="-4,4 -4,-192.67 58.45,-192.67 58.45,4 -4,4"/>
<!-- foo -->
<g id="node1" class="node">
<title>foo</title>
<ellipse fill="#ada5a5" stroke="#ada5a5" cx="27.22" cy="-169.23" rx="27" ry="19.45"/>
<text text-anchor="middle" x="27.22" y="-165.68" font-family="sans" font-size="14.00">foo</text>
</g>
<!-- bar -->
<g id="node2" class="node">
<title>bar</title>
<ellipse fill="#ff0000" stroke="#ff0000" cx="27.22" cy="-94.34" rx="27" ry="19.45"/>
<text text-anchor="middle" x="27.22" y="-90.79" font-family="sans" font-size="14.00" fill="white">bar</text>
</g>
<!-- foo&#45;&gt;bar -->
<g id="edge1" class="edge">
<title>foo&#45;&gt;bar</title>
<path fill="none" stroke="black" d="M27.22,-149.46C27.22,-142.14 27.22,-133.58 27.22,-125.45"/>
<polygon fill="black" stroke="black" points="30.72,-125.56 27.22,-115.56 23.72,-125.56 30.72,-125.56"/>
</g>
<!-- baz -->
<g id="node3" class="node">
<title>baz</title>
<ellipse fill="none" stroke="#88c6ff" cx="27.22" cy="-19.45" rx="27.22" ry="19.45"/>
<text text-anchor="middle" x="27.22" y="-15.9" font-family="sans" font-size="14.00">baz</text>
</g>
<!-- bar&#45;&gt;baz -->
<g id="edge2" class="edge">
<title>bar&#45;&gt;baz</title>
<path fill="none" stroke="black" d="M27.22,-74.57C27.22,-67.25 27.22,-58.69 27.22,-50.56"/>
<polygon fill="black" stroke="black" points="30.72,-50.67 27.22,-40.67 23.72,-50.67 30.72,-50.67"/>
</g>
</g>
</svg>
