<?xml version="1.0" encoding="UTF-8" standalone="no"?>
<!DOCTYPE svg PUBLIC "-//W3C//DTD SVG 1.1//EN"
 "http://www.w3.org/Graphics/SVG/1.1/DTD/svg11.dtd">
<!-- Generated by graphviz version 9.0.0 (20231125.0833)
 -->
<!-- Title: example Pages: 1 -->
<svg width="512pt" height="625pt"
 viewBox="0.00 0.00 512.00 624.85" xmlns="http://www.w3.org/2000/svg" xmlns:xlink="http://www.w3.org/1999/xlink">
<g id="graph0" class="graph" transform="scale(1 1) rotate(0) translate(4 620.85)">
<title>example</title>
<polygon fill="none" stroke="none" points="-4,4 -4,-620.85 508,-620.85 508,4 -4,4"/>
<g id="clust1" class="cluster">
<title>cluster_legend</title>
<polygon fill="none" stroke="black" stroke-dasharray="5,2" points="0,-231 0,-385.39 214,-385.39 214,-231 0,-231"/>
<text text-anchor="middle" x="107" y="-368.09" font-family="sans" font-size="14.00">Legend</text>
</g>
<g id="clust2" class="cluster">
<title>cluster_diagram</title>
</g>
<g id="clust3" class="cluster">
<title>cluster_subshell</title>
<polygon fill="none" stroke="black" stroke-dasharray="5,2" points="282,-74.89 282,-477.95 444,-477.95 444,-74.89 282,-74.89"/>
<text text-anchor="middle" x="363" y="-460.65" font-family="sans" font-size="14.00">Subshell process</text>
</g>
<!-- user defined script -->
<g id="node1" class="node">
<title>user defined script</title>
<ellipse fill="none" stroke="black" cx="107" cy="-330.45" rx="99.35" ry="19.45"/>
<text text-anchor="middle" x="107" y="-326.9" font-family="sans" font-size="14.00">user defined script</text>
</g>
<!-- cylc defined script -->
<g id="node2" class="node">
<title>cylc defined script</title>
<polygon fill="none" stroke="black" points="174.62,-275 39.38,-275 39.38,-239 174.62,-239 174.62,-275"/>
<text text-anchor="middle" x="107" y="-253.45" font-family="sans" font-size="14.00">cylc defined script</text>
</g>
<!-- user defined script&#45;&gt;cylc defined script -->
<!-- cylc&#45;env -->
<g id="node3" class="node">
<title>cylc&#45;env</title>
<polygon fill="none" stroke="black" points="397.62,-521.95 328.38,-521.95 328.38,-485.95 397.62,-485.95 397.62,-521.95"/>
<text text-anchor="middle" x="363" y="-500.4" font-family="sans" font-size="14.00">cylc&#45;env</text>
</g>
<!-- env&#45;script -->
<g id="node6" class="node">
<title>env&#45;script</title>
<ellipse fill="none" stroke="black" cx="363" cy="-411.01" rx="57.45" ry="19.45"/>
<text text-anchor="middle" x="363" y="-407.46" font-family="sans" font-size="14.00">env&#45;script</text>
</g>
<!-- cylc&#45;env&#45;&gt;env&#45;script -->
<g id="edge3" class="edge">
<title>cylc&#45;env&#45;&gt;env&#45;script</title>
<path fill="none" stroke="black" d="M363,-485.85C363,-473.63 363,-456.86 363,-442.39"/>
<polygon fill="black" stroke="black" points="366.5,-442.44 363,-432.44 359.5,-442.44 366.5,-442.44"/>
</g>
<!-- user&#45;env -->
<g id="node4" class="node">
<title>user&#45;env</title>
<polygon fill="none" stroke="black" points="400.25,-355.56 325.75,-355.56 325.75,-319.56 400.25,-319.56 400.25,-355.56"/>
<text text-anchor="middle" x="363" y="-334.01" font-family="sans" font-size="14.00">user&#45;env</text>
</g>
<!-- pre&#45;script -->
<g id="node7" class="node">
<title>pre&#45;script</title>
<ellipse fill="none" stroke="black" cx="363" cy="-264.12" rx="56.39" ry="19.45"/>
<text text-anchor="middle" x="363" y="-260.57" font-family="sans" font-size="14.00">pre&#45;script</text>
</g>
<!-- user&#45;env&#45;&gt;pre&#45;script -->
<g id="edge5" class="edge">
<title>user&#45;env&#45;&gt;pre&#45;script</title>
<path fill="none" stroke="black" d="M363,-319.27C363,-312.11 363,-303.59 363,-295.45"/>
<polygon fill="black" stroke="black" points="366.5,-295.52 363,-285.52 359.5,-295.52 366.5,-295.52"/>
</g>
<!-- init&#45;script -->
<g id="node5" class="node">
<title>init&#45;script</title>
<ellipse fill="none" stroke="black" cx="363" cy="-577.4" rx="55.86" ry="19.45"/>
<text text-anchor="middle" x="363" y="-573.85" font-family="sans" font-size="14.00">init&#45;script</text>
</g>
<!-- init&#45;script&#45;&gt;cylc&#45;env -->
<g id="edge2" class="edge">
<title>init&#45;script&#45;&gt;cylc&#45;env</title>
<path fill="none" stroke="black" d="M363,-557.63C363,-550.29 363,-541.72 363,-533.65"/>
<polygon fill="black" stroke="black" points="366.5,-533.89 363,-523.89 359.5,-533.89 366.5,-533.89"/>
</g>
<!-- env&#45;script&#45;&gt;user&#45;env -->
<g id="edge4" class="edge">
<title>env&#45;script&#45;&gt;user&#45;env</title>
<path fill="none" stroke="black" d="M363,-391.24C363,-383.9 363,-375.33 363,-367.25"/>
<polygon fill="black" stroke="black" points="366.5,-367.5 363,-357.5 359.5,-367.5 366.5,-367.5"/>
</g>
<!-- script -->
<g id="node8" class="node">
<title>script</title>
<ellipse fill="none" stroke="black" cx="363" cy="-189.23" rx="37.3" ry="19.45"/>
<text text-anchor="middle" x="363" y="-185.68" font-family="sans" font-size="14.00">script</text>
</g>
<!-- pre&#45;script&#45;&gt;script -->
<g id="edge6" class="edge">
<title>pre&#45;script&#45;&gt;script</title>
<path fill="none" stroke="black" d="M363,-244.35C363,-237.03 363,-228.47 363,-220.34"/>
<polygon fill="black" stroke="black" points="366.5,-220.45 363,-210.45 359.5,-220.45 366.5,-220.45"/>
</g>
<!-- post&#45;script -->
<g id="node9" class="node">
<title>post&#45;script</title>
<ellipse fill="none" stroke="black" cx="363" cy="-114.34" rx="60.63" ry="19.45"/>
<text text-anchor="middle" x="363" y="-110.79" font-family="sans" font-size="14.00">post&#45;script</text>
</g>
<!-- script&#45;&gt;post&#45;script -->
<g id="edge7" class="edge">
<title>script&#45;&gt;post&#45;script</title>
<path fill="none" stroke="black" d="M363,-169.46C363,-162.14 363,-153.58 363,-145.45"/>
<polygon fill="black" stroke="black" points="366.5,-145.56 363,-135.56 359.5,-145.56 366.5,-145.56"/>
</g>
<!-- err&#45;script -->
<g id="node10" class="node">
<title>err&#45;script</title>
<ellipse fill="none" stroke="black" cx="297" cy="-39.45" rx="54.8" ry="19.45"/>
<text text-anchor="middle" x="297" y="-35.9" font-family="sans" font-size="14.00">err&#45;script</text>
</g>
<!-- post&#45;script&#45;&gt;err&#45;script -->
<g id="edge8" class="edge">
<title>post&#45;script&#45;&gt;err&#45;script</title>
<path fill="none" stroke="black" d="M346.69,-95.32C338.85,-86.67 329.32,-76.14 320.7,-66.62"/>
<polygon fill="black" stroke="black" points="323.45,-64.44 314.14,-59.38 318.26,-69.14 323.45,-64.44"/>
</g>
<!-- exit&#45;script -->
<g id="node11" class="node">
<title>exit&#45;script</title>
<ellipse fill="none" stroke="black" cx="427" cy="-39.45" rx="57.45" ry="19.45"/>
<text text-anchor="middle" x="427" y="-35.9" font-family="sans" font-size="14.00">exit&#45;script</text>
</g>
<!-- post&#45;script&#45;&gt;exit&#45;script -->
<g id="edge9" class="edge">
<title>post&#45;script&#45;&gt;exit&#45;script</title>
<path fill="none" stroke="black" d="M378.82,-95.32C386.28,-86.82 395.34,-76.51 403.57,-67.13"/>
<polygon fill="black" stroke="black" points="406.17,-69.47 410.14,-59.65 400.91,-64.85 406.17,-69.47"/>
</g>
</g>
</svg>
