<?xml version="1.0" encoding="UTF-8" standalone="no"?>
<!DOCTYPE svg PUBLIC "-//W3C//DTD SVG 1.1//EN"
 "http://www.w3.org/Graphics/SVG/1.1/DTD/svg11.dtd">
<!-- Generated by graphviz version 9.0.0 (20231125.0833)
 -->
<!-- Title: Example Pages: 1 -->
<svg width="210pt" height="332pt"
 viewBox="0.00 0.00 210.25 332.00" xmlns="http://www.w3.org/2000/svg" xmlns:xlink="http://www.w3.org/1999/xlink">
<g id="graph0" class="graph" transform="scale(1 1) rotate(0) translate(4 328)">
<title>Example</title>
<polygon fill="none" stroke="none" points="-4,4 -4,-328 206.25,-328 206.25,4 -4,4"/>
<!-- AIRPLANE -->
<g id="node1" class="node">
<title>AIRPLANE</title>
<polygon fill="powderblue" stroke="royalblue" points="85.62,-108 4.38,-108 4.38,-72 85.62,-72 85.62,-108"/>
<text text-anchor="middle" x="45" y="-86.45" font-family="sans" font-size="14.00">AIRPLANE</text>
</g>
<!-- v22 -->
<g id="node2" class="node">
<title>v22</title>
<polygon fill="powderblue" stroke="royalblue" points="126,-36 72,-36 72,0 126,0 126,-36"/>
<text text-anchor="middle" x="99" y="-14.45" font-family="sans" font-size="14.00">v22</text>
</g>
<!-- AIRPLANE&#45;&gt;v22 -->
<g id="edge1" class="edge">
<title>AIRPLANE&#45;&gt;v22</title>
<path fill="none" stroke="royalblue" d="M58.35,-71.7C64.56,-63.64 72.08,-53.89 78.96,-44.98"/>
<polygon fill="royalblue" stroke="royalblue" points="81.54,-47.36 84.88,-37.3 76,-43.08 81.54,-47.36"/>
</g>
<!-- a380 -->
<g id="node3" class="node">
<title>a380</title>
<polygon fill="powderblue" stroke="royalblue" points="54,-36 0,-36 0,0 54,0 54,-36"/>
<text text-anchor="middle" x="27" y="-14.45" font-family="sans" font-size="14.00">a380</text>
</g>
<!-- AIRPLANE&#45;&gt;a380 -->
<g id="edge2" class="edge">
<title>AIRPLANE&#45;&gt;a380</title>
<path fill="none" stroke="royalblue" d="M40.55,-71.7C38.65,-64.32 36.39,-55.52 34.26,-47.25"/>
<polygon fill="royalblue" stroke="royalblue" points="37.66,-46.38 31.78,-37.57 30.88,-48.13 37.66,-46.38"/>
</g>
<!-- HELICOPTER -->
<g id="node4" class="node">
<title>HELICOPTER</title>
<polygon fill="powderblue" stroke="royalblue" points="202.25,-108 103.75,-108 103.75,-72 202.25,-72 202.25,-108"/>
<text text-anchor="middle" x="153" y="-86.45" font-family="sans" font-size="14.00">HELICOPTER</text>
</g>
<!-- HELICOPTER&#45;&gt;v22 -->
<g id="edge3" class="edge">
<title>HELICOPTER&#45;&gt;v22</title>
<path fill="none" stroke="royalblue" d="M139.65,-71.7C133.44,-63.64 125.92,-53.89 119.04,-44.98"/>
<polygon fill="royalblue" stroke="royalblue" points="122,-43.08 113.12,-37.3 116.46,-47.36 122,-43.08"/>
</g>
<!-- r44 -->
<g id="node5" class="node">
<title>r44</title>
<polygon fill="powderblue" stroke="royalblue" points="198,-36 144,-36 144,0 198,0 198,-36"/>
<text text-anchor="middle" x="171" y="-14.45" font-family="sans" font-size="14.00">r44</text>
</g>
<!-- HELICOPTER&#45;&gt;r44 -->
<g id="edge4" class="edge">
<title>HELICOPTER&#45;&gt;r44</title>
<path fill="none" stroke="royalblue" d="M157.45,-71.7C159.35,-64.32 161.61,-55.52 163.74,-47.25"/>
<polygon fill="royalblue" stroke="royalblue" points="167.12,-48.13 166.22,-37.57 160.34,-46.38 167.12,-48.13"/>
</g>
<!-- root -->
<g id="node6" class="node">
<title>root</title>
<polygon fill="powderblue" stroke="royalblue" points="126,-324 72,-324 72,-288 126,-288 126,-324"/>
<text text-anchor="middle" x="99" y="-302.45" font-family="sans" font-size="14.00">root</text>
</g>
<!-- VEHICLE -->
<g id="node7" class="node">
<title>VEHICLE</title>
<polygon fill="powderblue" stroke="royalblue" points="134.38,-252 63.62,-252 63.62,-216 134.38,-216 134.38,-252"/>
<text text-anchor="middle" x="99" y="-230.45" font-family="sans" font-size="14.00">VEHICLE</text>
</g>
<!-- root&#45;&gt;VEHICLE -->
<g id="edge5" class="edge">
<title>root&#45;&gt;VEHICLE</title>
<path fill="none" stroke="royalblue" d="M99,-287.7C99,-280.41 99,-271.73 99,-263.54"/>
<polygon fill="royalblue" stroke="royalblue" points="102.5,-263.62 99,-253.62 95.5,-263.62 102.5,-263.62"/>
</g>
<!-- AIR_VEHICLE -->
<g id="node8" class="node">
<title>AIR_VEHICLE</title>
<polygon fill="powderblue" stroke="royalblue" points="148.62,-180 49.38,-180 49.38,-144 148.62,-144 148.62,-180"/>
<text text-anchor="middle" x="99" y="-158.45" font-family="sans" font-size="14.00">AIR_VEHICLE</text>
</g>
<!-- VEHICLE&#45;&gt;AIR_VEHICLE -->
<g id="edge6" class="edge">
<title>VEHICLE&#45;&gt;AIR_VEHICLE</title>
<path fill="none" stroke="royalblue" d="M99,-215.7C99,-208.41 99,-199.73 99,-191.54"/>
<polygon fill="royalblue" stroke="royalblue" points="102.5,-191.62 99,-181.62 95.5,-191.62 102.5,-191.62"/>
</g>
<!-- AIR_VEHICLE&#45;&gt;AIRPLANE -->
<g id="edge7" class="edge">
<title>AIR_VEHICLE&#45;&gt;AIRPLANE</title>
<path fill="none" stroke="royalblue" d="M85.65,-143.7C79.44,-135.64 71.92,-125.89 65.04,-116.98"/>
<polygon fill="royalblue" stroke="royalblue" points="68,-115.08 59.12,-109.3 62.46,-119.36 68,-115.08"/>
</g>
<!-- AIR_VEHICLE&#45;&gt;HELICOPTER -->
<g id="edge8" class="edge">
<title>AIR_VEHICLE&#45;&gt;HELICOPTER</title>
<path fill="none" stroke="royalblue" d="M112.35,-143.7C118.56,-135.64 126.08,-125.89 132.96,-116.98"/>
<polygon fill="royalblue" stroke="royalblue" points="135.54,-119.36 138.88,-109.3 130,-115.08 135.54,-119.36"/>
</g>
</g>
</svg>
