<?xml version="1.0" encoding="UTF-8" standalone="no"?>
<!DOCTYPE svg PUBLIC "-//W3C//DTD SVG 1.1//EN"
 "http://www.w3.org/Graphics/SVG/1.1/DTD/svg11.dtd">
<!-- Generated by graphviz version 9.0.0 (20231125.0833)
 -->
<!-- Title: Example Pages: 1 -->
<svg width="504pt" height="105pt"
 viewBox="0.00 0.00 504.00 104.90" xmlns="http://www.w3.org/2000/svg" xmlns:xlink="http://www.w3.org/1999/xlink">
<g id="graph0" class="graph" transform="scale(0.443662 0.443662) rotate(0) translate(4 232.44)">
<title>Example</title>
<polygon fill="none" stroke="none" points="-4,4 -4,-232.44 1132,-232.44 1132,4 -4,4"/>
<g id="clust1" class="cluster">
<title>cluster_1</title>
<polygon fill="none" stroke="black" stroke-dasharray="5,2" points="8,-8 8,-220.44 447,-220.44 447,-8 8,-8"/>
<text text-anchor="middle" x="227.5" y="-203.14" font-family="sans" font-size="14.00">2000&#45;01&#45;01T00:00Z</text>
</g>
<g id="clust2" class="cluster">
<title>cluster_2</title>
<polygon fill="none" stroke="black" stroke-dasharray="5,2" points="455,-110.47 455,-220.44 673,-220.44 673,-110.47 455,-110.47"/>
<text text-anchor="middle" x="564" y="-203.14" font-family="sans" font-size="14.00">2000&#45;01&#45;01T12:00Z</text>
</g>
<g id="clust3" class="cluster">
<title>cluster_3</title>
<polygon fill="none" stroke="black" stroke-dasharray="5,2" points="681,-8 681,-220.44 1120,-220.44 1120,-8 681,-8"/>
<text text-anchor="middle" x="900.5" y="-203.14" font-family="sans" font-size="14.00">2000&#45;01&#45;02T00:00Z</text>
</g>
<!-- 01T00/foo -->
<g id="node1" class="node">
<title>01T00/foo</title>
<ellipse fill="none" stroke="black" cx="338" cy="-151.7" rx="101.47" ry="33.23"/>
<text text-anchor="middle" x="338" y="-157.9" font-family="sans" font-size="14.00">foo</text>
<text text-anchor="middle" x="338" y="-138.4" font-family="sans" font-size="14.00">2000&#45;01&#45;01T00:00Z</text>
</g>
<!-- 01T00/bar -->
<g id="node2" class="node">
<title>01T00/bar</title>
<ellipse fill="none" stroke="black" cx="338" cy="-49.23" rx="101.47" ry="33.23"/>
<text text-anchor="middle" x="338" y="-55.43" font-family="sans" font-size="14.00">bar</text>
<text text-anchor="middle" x="338" y="-35.93" font-family="sans" font-size="14.00">2000&#45;01&#45;01T00:00Z</text>
</g>
<!-- 01T00/foo&#45;&gt;01T00/bar -->
<g id="edge1" class="edge">
<title>01T00/foo&#45;&gt;01T00/bar</title>
<path fill="none" stroke="black" d="M338,-118.08C338,-110.46 338,-102.22 338,-94.19"/>
<polygon fill="black" stroke="black" points="341.5,-94.2 338,-84.2 334.5,-94.2 341.5,-94.2"/>
</g>
<!-- 01T00/baz -->
<g id="node3" class="node">
<title>01T00/baz</title>
<ellipse fill="none" stroke="black" cx="117" cy="-151.7" rx="101.47" ry="33.23"/>
<text text-anchor="middle" x="117" y="-157.9" font-family="sans" font-size="14.00">baz</text>
<text text-anchor="middle" x="117" y="-138.4" font-family="sans" font-size="14.00">2000&#45;01&#45;01T00:00Z</text>
</g>
<!-- b01T12/az -->
<g id="node4" class="node">
<title>b01T12/az</title>
<ellipse fill="none" stroke="black" cx="564" cy="-151.7" rx="101.47" ry="33.23"/>
<text text-anchor="middle" x="564" y="-157.9" font-family="sans" font-size="14.00">baz</text>
<text text-anchor="middle" x="564" y="-138.4" font-family="sans" font-size="14.00">2000&#45;01&#45;01T12:00Z</text>
</g>
<!-- 02T00/foo -->
<g id="node5" class="node">
<title>02T00/foo</title>
<ellipse fill="none" stroke="black" cx="1011" cy="-151.7" rx="101.47" ry="33.23"/>
<text text-anchor="middle" x="1011" y="-157.9" font-family="sans" font-size="14.00">foo</text>
<text text-anchor="middle" x="1011" y="-138.4" font-family="sans" font-size="14.00">2000&#45;01&#45;02T00:00Z</text>
</g>
<!-- 02T00/bar -->
<g id="node6" class="node">
<title>02T00/bar</title>
<ellipse fill="none" stroke="black" cx="1011" cy="-49.23" rx="101.47" ry="33.23"/>
<text text-anchor="middle" x="1011" y="-55.43" font-family="sans" font-size="14.00">bar</text>
<text text-anchor="middle" x="1011" y="-35.93" font-family="sans" font-size="14.00">2000&#45;01&#45;02T00:00Z</text>
</g>
<!-- 02T00/foo&#45;&gt;02T00/bar -->
<g id="edge2" class="edge">
<title>02T00/foo&#45;&gt;02T00/bar</title>
<path fill="none" stroke="black" d="M1011,-118.08C1011,-110.46 1011,-102.22 1011,-94.19"/>
<polygon fill="black" stroke="black" points="1014.5,-94.2 1011,-84.2 1007.5,-94.2 1014.5,-94.2"/>
</g>
<!-- 02T00/baz -->
<g id="node7" class="node">
<title>02T00/baz</title>
<ellipse fill="none" stroke="black" cx="790" cy="-151.7" rx="101.47" ry="33.23"/>
<text text-anchor="middle" x="790" y="-157.9" font-family="sans" font-size="14.00">baz</text>
<text text-anchor="middle" x="790" y="-138.4" font-family="sans" font-size="14.00">2000&#45;01&#45;02T00:00Z</text>
</g>
</g>
</svg>
