<?xml version="1.0" encoding="UTF-8" standalone="no"?>
<!DOCTYPE svg PUBLIC "-//W3C//DTD SVG 1.1//EN"
 "http://www.w3.org/Graphics/SVG/1.1/DTD/svg11.dtd">
<!-- Generated by graphviz version 9.0.0 (20231125.0833)
 -->
<!-- Title: Mini_Cylc Pages: 1 -->
<svg width="206pt" height="272pt"
 viewBox="0.00 0.00 206.00 271.56" xmlns="http://www.w3.org/2000/svg" xmlns:xlink="http://www.w3.org/1999/xlink">
<g id="graph0" class="graph" transform="scale(1 1) rotate(0) translate(4 267.56)">
<title>Mini_Cylc</title>
<polygon fill="none" stroke="none" points="-4,4 -4,-267.56 202,-267.56 202,4 -4,4"/>
<!-- f -->
<g id="node1" class="node">
<title>f</title>
<ellipse fill="none" stroke="black" cx="99" cy="-19.45" rx="27" ry="19.45"/>
<text text-anchor="middle" x="99" y="-15.9" font-family="sans" font-size="14.00">f</text>
</g>
<!-- b -->
<g id="node2" class="node">
<title>b</title>
<ellipse fill="none" stroke="black" cx="63" cy="-169.23" rx="27" ry="19.45"/>
<text text-anchor="middle" x="63" y="-165.68" font-family="sans" font-size="14.00">b</text>
</g>
<!-- d -->
<g id="node3" class="node">
<title>d</title>
<ellipse fill="none" stroke="black" cx="27" cy="-94.34" rx="27" ry="19.45"/>
<text text-anchor="middle" x="27" y="-90.79" font-family="sans" font-size="14.00">d</text>
</g>
<!-- b&#45;&gt;d -->
<g id="edge1" class="edge">
<title>b&#45;&gt;d</title>
<path fill="none" stroke="black" d="M54.29,-150.58C50.25,-142.41 45.35,-132.49 40.83,-123.33"/>
<polygon fill="black" stroke="black" points="44,-121.84 36.43,-114.43 37.72,-124.94 44,-121.84"/>
</g>
<!-- c -->
<g id="node5" class="node">
<title>c</title>
<ellipse fill="none" stroke="black" cx="99" cy="-94.34" rx="27" ry="19.45"/>
<text text-anchor="middle" x="99" y="-90.79" font-family="sans" font-size="14.00">c</text>
</g>
<!-- b&#45;&gt;c -->
<g id="edge3" class="edge">
<title>b&#45;&gt;c</title>
<path fill="none" stroke="black" d="M71.71,-150.58C75.75,-142.41 80.65,-132.49 85.17,-123.33"/>
<polygon fill="black" stroke="black" points="88.28,-124.94 89.57,-114.43 82,-121.84 88.28,-124.94"/>
</g>
<!-- d&#45;&gt;f -->
<g id="edge4" class="edge">
<title>d&#45;&gt;f</title>
<path fill="none" stroke="black" d="M42.27,-77.88C52.01,-68.02 64.81,-55.06 75.79,-43.94"/>
<polygon fill="black" stroke="black" points="78.15,-46.53 82.69,-36.96 73.17,-41.61 78.15,-46.53"/>
</g>
<!-- a -->
<g id="node4" class="node">
<title>a</title>
<ellipse fill="none" stroke="black" cx="63" cy="-244.12" rx="27" ry="19.45"/>
<text text-anchor="middle" x="63" y="-240.57" font-family="sans" font-size="14.00">a</text>
</g>
<!-- a&#45;&gt;b -->
<g id="edge2" class="edge">
<title>a&#45;&gt;b</title>
<path fill="none" stroke="black" d="M63,-224.35C63,-217.03 63,-208.47 63,-200.34"/>
<polygon fill="black" stroke="black" points="66.5,-200.45 63,-190.45 59.5,-200.45 66.5,-200.45"/>
</g>
<!-- e -->
<g id="node6" class="node">
<title>e</title>
<ellipse fill="none" stroke="black" cx="171" cy="-94.34" rx="27" ry="19.45"/>
<text text-anchor="middle" x="171" y="-90.79" font-family="sans" font-size="14.00">e</text>
</g>
<!-- e&#45;&gt;f -->
<g id="edge5" class="edge">
<title>e&#45;&gt;f</title>
<path fill="none" stroke="black" d="M155.73,-77.88C145.99,-68.02 133.19,-55.06 122.21,-43.94"/>
<polygon fill="black" stroke="black" points="124.83,-41.61 115.31,-36.96 119.85,-46.53 124.83,-41.61"/>
</g>
</g>
</svg>
