<?xml version="1.0" encoding="UTF-8" standalone="no"?>
<!DOCTYPE svg PUBLIC "-//W3C//DTD SVG 1.1//EN"
 "http://www.w3.org/Graphics/SVG/1.1/DTD/svg11.dtd">
<!-- Generated by graphviz version 9.0.0 (20231125.0833)
 -->
<!-- Title: Example Pages: 1 -->
<svg width="360pt" height="67pt"
 viewBox="0.00 0.00 360.00 67.13" xmlns="http://www.w3.org/2000/svg" xmlns:xlink="http://www.w3.org/1999/xlink">
<g id="graph0" class="graph" transform="scale(0.578708 0.578708) rotate(0) translate(4 112)">
<title>Example</title>
<polygon fill="none" stroke="none" points="-4,4 -4,-112 618.08,-112 618.08,4 -4,4"/>
<!-- ENGINE -->
<g id="node1" class="node">
<title>ENGINE</title>
<polygon fill="powderblue" stroke="royalblue" points="356.45,-108 262.25,-108 262.25,-72 356.45,-72 356.45,-108"/>
<text text-anchor="middle" x="309.35" y="-86.45" font-family="sans" font-size="14.00">ENGINE</text>
</g>
<!-- TURBINE_ENGINE -->
<g id="node2" class="node">
<title>TURBINE_ENGINE</title>
<polygon fill="powderblue" stroke="royalblue" points="158.7,-36 0,-36 0,0 158.7,0 158.7,-36"/>
<text text-anchor="middle" x="79.35" y="-14.45" font-family="sans" font-size="14.00">TURBINE_ENGINE</text>
</g>
<!-- ENGINE&#45;&gt;TURBINE_ENGINE -->
<g id="edge1" class="edge">
<title>ENGINE&#45;&gt;TURBINE_ENGINE</title>
<path fill="none" stroke="black" d="M261.97,-74.58C228.94,-64.53 184.36,-50.96 147.51,-39.75"/>
<polygon fill="black" stroke="black" points="148.88,-36.5 138.3,-36.94 146.84,-43.2 148.88,-36.5"/>
</g>
<!-- INTERNAL_COMBUSTION_ENGINE -->
<g id="node3" class="node">
<title>INTERNAL_COMBUSTION_ENGINE</title>
<polygon fill="powderblue" stroke="royalblue" points="442.33,-36 176.38,-36 176.38,0 442.33,0 442.33,-36"/>
<text text-anchor="middle" x="309.35" y="-14.45" font-family="sans" font-size="14.00">INTERNAL_COMBUSTION_ENGINE</text>
</g>
<!-- ENGINE&#45;&gt;INTERNAL_COMBUSTION_ENGINE -->
<g id="edge2" class="edge">
<title>ENGINE&#45;&gt;INTERNAL_COMBUSTION_ENGINE</title>
<path fill="none" stroke="black" d="M309.35,-71.7C309.35,-64.41 309.35,-55.73 309.35,-47.54"/>
<polygon fill="black" stroke="black" points="312.85,-47.62 309.35,-37.62 305.85,-47.62 312.85,-47.62"/>
</g>
<!-- HUMAN_ENGINE -->
<g id="node4" class="node">
<title>HUMAN_ENGINE</title>
<polygon fill="powderblue" stroke="royalblue" points="614.08,-36 460.62,-36 460.62,0 614.08,0 614.08,-36"/>
<text text-anchor="middle" x="537.35" y="-14.45" font-family="sans" font-size="14.00">HUMAN_ENGINE</text>
</g>
<!-- ENGINE&#45;&gt;HUMAN_ENGINE -->
<g id="edge3" class="edge">
<title>ENGINE&#45;&gt;HUMAN_ENGINE</title>
<path fill="none" stroke="black" d="M356.87,-74.41C389.51,-64.39 433.33,-50.93 469.62,-39.79"/>
<polygon fill="black" stroke="black" points="470.64,-43.14 479.18,-36.86 468.59,-36.45 470.64,-43.14"/>
</g>
</g>
</svg>
