<?xml version="1.0" encoding="UTF-8" standalone="no"?>
<!DOCTYPE svg PUBLIC "-//W3C//DTD SVG 1.1//EN"
 "http://www.w3.org/Graphics/SVG/1.1/DTD/svg11.dtd">
<!-- Generated by graphviz version 9.0.0 (20231125.0833)
 -->
<!-- Title: Example Pages: 1 -->
<svg width="161pt" height="360pt"
 viewBox="0.00 0.00 161.05 360.00" xmlns="http://www.w3.org/2000/svg" xmlns:xlink="http://www.w3.org/1999/xlink">
<g id="graph0" class="graph" transform="scale(0.644191 0.644191) rotate(0) translate(4 554.84)">
<title>Example</title>
<polygon fill="none" stroke="none" points="-4,4 -4,-554.84 246,-554.84 246,4 -4,4"/>
<g id="clust1" class="cluster">
<title>cluster_1</title>
<polygon fill="none" stroke="black" stroke-dasharray="5,2" points="8,-212.94 8,-542.84 78,-542.84 78,-212.94 8,-212.94"/>
<text text-anchor="middle" x="43" y="-525.54" font-family="sans" font-size="14.00">1</text>
</g>
<g id="clust2" class="cluster">
<title>cluster_2</title>
<polygon fill="none" stroke="black" stroke-dasharray="5,2" points="86,-110.47 86,-432.87 156,-432.87 156,-110.47 86,-110.47"/>
<text text-anchor="middle" x="121" y="-415.57" font-family="sans" font-size="14.00">2</text>
</g>
<g id="clust3" class="cluster">
<title>cluster_3</title>
<polygon fill="none" stroke="black" stroke-dasharray="5,2" points="164,-8 164,-322.9 234,-322.9 234,-8 164,-8"/>
<text text-anchor="middle" x="199" y="-305.6" font-family="sans" font-size="14.00">3</text>
</g>
<!-- 1/foo -->
<g id="node1" class="node">
<title>1/foo</title>
<ellipse fill="none" stroke="black" cx="43" cy="-474.11" rx="27" ry="33.23"/>
<text text-anchor="middle" x="43" y="-480.31" font-family="sans" font-size="14.00">foo</text>
<text text-anchor="middle" x="43" y="-460.81" font-family="sans" font-size="14.00">1</text>
</g>
<!-- 1/bar -->
<g id="node2" class="node">
<title>1/bar</title>
<ellipse fill="none" stroke="black" cx="43" cy="-364.14" rx="27" ry="33.23"/>
<text text-anchor="middle" x="43" y="-370.34" font-family="sans" font-size="14.00">bar</text>
<text text-anchor="middle" x="43" y="-350.84" font-family="sans" font-size="14.00">1</text>
</g>
<!-- 1/foo&#45;&gt;1/bar -->
<g id="edge1" class="edge">
<title>1/foo&#45;&gt;1/bar</title>
<path fill="none" stroke="black" d="M43,-440.42C43,-430.59 43,-419.64 43,-409.2"/>
<polygon fill="black" stroke="black" points="46.5,-409.23 43,-399.23 39.5,-409.23 46.5,-409.23"/>
</g>
<!-- 1/baz -->
<g id="node3" class="node">
<title>1/baz</title>
<ellipse fill="none" stroke="black" cx="43" cy="-254.17" rx="27.22" ry="33.23"/>
<text text-anchor="middle" x="43" y="-260.37" font-family="sans" font-size="14.00">baz</text>
<text text-anchor="middle" x="43" y="-240.87" font-family="sans" font-size="14.00">1</text>
</g>
<!-- 1/bar&#45;&gt;1/baz -->
<g id="edge2" class="edge">
<title>1/bar&#45;&gt;1/baz</title>
<path fill="none" stroke="black" d="M43,-330.45C43,-320.62 43,-309.67 43,-299.23"/>
<polygon fill="black" stroke="black" points="46.5,-299.26 43,-289.26 39.5,-299.26 46.5,-299.26"/>
</g>
<!-- 2/bar -->
<g id="node5" class="node">
<title>2/bar</title>
<ellipse fill="none" stroke="black" cx="121" cy="-254.17" rx="27" ry="33.23"/>
<text text-anchor="middle" x="121" y="-260.37" font-family="sans" font-size="14.00">bar</text>
<text text-anchor="middle" x="121" y="-240.87" font-family="sans" font-size="14.00">2</text>
</g>
<!-- 1/bar&#45;&gt;2/bar -->
<g id="edge7" class="edge">
<title>1/bar&#45;&gt;2/bar</title>
<path fill="none" stroke="black" d="M64.28,-343.14C70.34,-336.94 76.73,-329.89 82,-322.9 89.05,-313.56 95.77,-302.82 101.59,-292.69"/>
<polygon fill="black" stroke="black" points="104.54,-294.6 106.35,-284.16 98.42,-291.19 104.54,-294.6"/>
</g>
<!-- 2/foo -->
<g id="node4" class="node">
<title>2/foo</title>
<ellipse fill="none" stroke="black" cx="121" cy="-364.14" rx="27" ry="33.23"/>
<text text-anchor="middle" x="121" y="-370.34" font-family="sans" font-size="14.00">foo</text>
<text text-anchor="middle" x="121" y="-350.84" font-family="sans" font-size="14.00">2</text>
</g>
<!-- 2/foo&#45;&gt;2/bar -->
<g id="edge3" class="edge">
<title>2/foo&#45;&gt;2/bar</title>
<path fill="none" stroke="black" d="M121,-330.45C121,-320.62 121,-309.67 121,-299.23"/>
<polygon fill="black" stroke="black" points="124.5,-299.26 121,-289.26 117.5,-299.26 124.5,-299.26"/>
</g>
<!-- 2/baz -->
<g id="node6" class="node">
<title>2/baz</title>
<ellipse fill="none" stroke="black" cx="121" cy="-151.7" rx="27.22" ry="33.23"/>
<text text-anchor="middle" x="121" y="-157.9" font-family="sans" font-size="14.00">baz</text>
<text text-anchor="middle" x="121" y="-138.4" font-family="sans" font-size="14.00">2</text>
</g>
<!-- 2/bar&#45;&gt;2/baz -->
<g id="edge4" class="edge">
<title>2/bar&#45;&gt;2/baz</title>
<path fill="none" stroke="black" d="M121,-220.55C121,-212.93 121,-204.69 121,-196.66"/>
<polygon fill="black" stroke="black" points="124.5,-196.67 121,-186.67 117.5,-196.67 124.5,-196.67"/>
</g>
<!-- 3/bar -->
<g id="node8" class="node">
<title>3/bar</title>
<ellipse fill="none" stroke="black" cx="199" cy="-151.7" rx="27" ry="33.23"/>
<text text-anchor="middle" x="199" y="-157.9" font-family="sans" font-size="14.00">bar</text>
<text text-anchor="middle" x="199" y="-138.4" font-family="sans" font-size="14.00">3</text>
</g>
<!-- 2/bar&#45;&gt;3/bar -->
<g id="edge8" class="edge">
<title>2/bar&#45;&gt;3/bar</title>
<path fill="none" stroke="black" d="M139.48,-229.36C149.68,-216.22 162.5,-199.71 173.63,-185.39"/>
<polygon fill="black" stroke="black" points="176.35,-187.58 179.72,-177.54 170.82,-183.29 176.35,-187.58"/>
</g>
<!-- 3/foo -->
<g id="node7" class="node">
<title>3/foo</title>
<ellipse fill="none" stroke="black" cx="199" cy="-254.17" rx="27" ry="33.23"/>
<text text-anchor="middle" x="199" y="-260.37" font-family="sans" font-size="14.00">foo</text>
<text text-anchor="middle" x="199" y="-240.87" font-family="sans" font-size="14.00">3</text>
</g>
<!-- 3/foo&#45;&gt;3/bar -->
<g id="edge5" class="edge">
<title>3/foo&#45;&gt;3/bar</title>
<path fill="none" stroke="black" d="M199,-220.55C199,-212.93 199,-204.69 199,-196.66"/>
<polygon fill="black" stroke="black" points="202.5,-196.67 199,-186.67 195.5,-196.67 202.5,-196.67"/>
</g>
<!-- 3/baz -->
<g id="node9" class="node">
<title>3/baz</title>
<ellipse fill="none" stroke="black" cx="199" cy="-49.23" rx="27.22" ry="33.23"/>
<text text-anchor="middle" x="199" y="-55.43" font-family="sans" font-size="14.00">baz</text>
<text text-anchor="middle" x="199" y="-35.93" font-family="sans" font-size="14.00">3</text>
</g>
<!-- 3/bar&#45;&gt;3/baz -->
<g id="edge6" class="edge">
<title>3/bar&#45;&gt;3/baz</title>
<path fill="none" stroke="black" d="M199,-118.08C199,-110.46 199,-102.22 199,-94.19"/>
<polygon fill="black" stroke="black" points="202.5,-94.2 199,-84.2 195.5,-94.2 202.5,-94.2"/>
</g>
</g>
</svg>
